<svg id="layer" xmlns="http://www.w3.org/2000/svg" xmlns:xlink="http://www.w3.org/1999/xlink" viewBox="0 0 960 720"><defs><style>.cls-1{fill:none;}.cls-2{fill:#fff6ad;}.cls-3{fill:#ffdb00;}.cls-4{fill:#514437;}.cls-5{fill:#fc0;}.cls-6{fill:#ffeb99;}.cls-7{clip-path:url(#clip-path);}.cls-8{fill:#fff;}.cls-9{fill:#736598;}.cls-10{fill:#e28c45;}.cls-11{fill-rule:evenodd;}.cls-12{fill:#40f;}.cls-13{fill-opacity:0.2;}</style><clipPath id="clip-path"><path id="mask" class="cls-1" d="M413.73,197.75c7.87-1.09,16.61,1,21.95,6.83,1.94,2.13.58,6-1.37,7.51l0,0c-3.63,2.89-10.24,2.57-14.64,2.6-5.19,0-10.63-.58-15.27-3.06-1.7-.91-3.06-1.89-3.48-3.88-1-4.8,3.06-7.06,7-8.52A27.1,27.1,0,0,1,413.73,197.75Zm82.78.48a36.19,36.19,0,0,1,10.19,1.08c3.38.82,8.7,2.46,9.08,6.66.53,5.83-5.6,8.8-10.44,9.55-5.93.92-13,.79-18.78-1-4.49-1.43-9.05-6.13-5.19-10.65,2.24-2.63,6.12-3.94,9.35-4.77A28.61,28.61,0,0,1,496.51,198.23Z"/></clipPath></defs><rect id="viewbox" class="cls-1" width="960" height="720"/><g id="banana"><path id="shadow" d="M308.58,679.85c-5.88-.12-11.76-.54-17.55-.9-8.54-.76-17.23.2-25.23-3.39-7.6-3-3.56-14,2.05-17.08,3.17-1.9,7-2.33,10.63-2.72,18.55-1.83,36.66-5.17,55.34-5.57,12.17.6,27.29.15,38.85.48,12.37.29,25.7,1,37.51,2.17,14,1.9,29.74,1.36,42.24,8.65,8.34,9.79-13.19,10.67-18.79,11.93-18.39,2.38-36.83,2.89-55.17,4.18h.12C354.6,679.52,332.9,680.55,308.58,679.85Z"/><path class="cls-2" d="M419.15,22.11c12.64-8.16,16.79-5.78,29.91-2.56,7.92,2.42,17.87,1.87,23.5,9,3.1-.52,11.32,12.09,13.65,14.93C501.46,59.7,513.15,80.81,519.66,102a85.32,85.32,0,0,1,4.57,11.75c6.94,6.78,6.09,22.08,6.57,31.31.87,12.44,1.46,26.21,2.89,39.13,1.57,16.58,3.69,34.19,3.74,50.72.73,19.48-2.38,39.91-1.18,58.79-6.65,56.47-6.44,104.86-55.26,142.83-33.77,42.56-71.47,67.38-127.48,50.52-39.45-47.63,5.2-130.89,17.61-183.11,1.82-15.44,8.69-29.21,12.23-44.53,5-7.35,4.48-17.46,6.5-25.92a221.72,221.72,0,0,0,2.71-40c1.92-19.44,1.28-39.17.53-59.5C394.81,90.71,381.2,54.77,419.15,22.11ZM391.27,220.39h0Zm1-148.2Zm11.43-33.4Zm0,0Z"/><path class="cls-3" d="M530.74,628.79c-9.76-25.3-18.68-51-23.84-77.85-5-20.47-13-41-13.79-62.05A136.94,136.94,0,0,1,490,471.11l-.33.72c-2.91-23.12-5-46.38-7-69.64-1.6-6.85-2.7-14-6-20.31-1.53-7.58-4.67-14.49-7.94-21.42v0c-2-7.48-10.74-8.05-17-6-4.78,2-8.42,5.78-12.56,8.87-5.16,4.84-8.07,11.65-13.47,16.27-9.27,9.61-15.94,21.45-23.55,32.36-4.77,6.59-5,9.42-12.39,16.27-5.13,4.41-8.3,11.37-12.95,16.33,2.6-15.29,5.65-30.76,3.28-46.28-1.71-8.45-4.63-17.11-5.4-25.71-2.86-11.38-3.45-24-9.85-34-3.39-6.82-6.79-14.25-12.61-19.31-13.45-7.91-29.84-7.76-44.92-6.87-17.17.15-34.54-.05-51.53,2.73l.23,0-.35.07.09,0c-8.4,2.22-17.1,2.28-25.6,3.87-8.88,2-17.07,6.09-25.58,9.19l.32-.11a44.49,44.49,0,0,0-13.83,6.36,24.52,24.52,0,0,0-5.42,5.34c-1.65,2.27-2.54,4.93-3.74,7.46s-2.41,5.07-3.71,7.55c-1.16,2.21-2.78,4.35-3.57,6.7s-2.31,4.5-3.26,6.82a74.73,74.73,0,0,0-4.2,15,32.59,32.59,0,0,1-.77,3.66,25.92,25.92,0,0,1-1.28,3.26c-.76,2-1.76,4-2.63,6-.76,1.71-1.23,3.44-2,5.14a116.21,116.21,0,0,0-4.5,12.32c-2.89,6.16-3.52,13.73-5.07,20.47a.08.08,0,0,1,0,0c-3.49,15.15-4.77,25.53.17,40.69,1,3.71,1.26,7.66,3.95,10.57.85.92,1.26,3.13,1.68,4.31s.8,2.6,1.25,3.89c.89,2.54,2.51,4.91,2.59,7.66a13.9,13.9,0,0,1-.89,4.58c0,.14,1,0,1.08,0,.44-.17.57-.47.85-.78a14.16,14.16,0,0,0,1.69-1.94,25.18,25.18,0,0,0,2.52-5.87,19.17,19.17,0,0,0,.51-4.83,26.49,26.49,0,0,0-.52-5.62,51.15,51.15,0,0,0-3.74-12.4c-.45-1-1-2-1.36-3a24.69,24.69,0,0,1-1.25-4.72c-.23-1.3-.78-2.49-1.13-3.76a28.88,28.88,0,0,1-.94-8.12,41.73,41.73,0,0,1,3.68-16.11c1.45-4.25,3.19-8.88,3.71-13.33.55-4.65,2.14-9.44,3.43-13.92,1.25-4.32,2.49-8.66,3.89-12.95,3.92-12,9.63-23.31,12.62-35.57,2.25.18,2-2.52,2.58-4.06,0,0,0,.08,0,.12a43.43,43.43,0,0,1,2.83-8.54l0,0a13.3,13.3,0,0,1,2.16-3.21,16.91,16.91,0,0,1,3.42-1.89l7.19-3.91c2.29-1.25,4.72-2.15,7.08-3.22A52.1,52.1,0,0,1,220.85,333c5.45-1.87,10.26-4.51,16-5.46,3.55-.59,7.13-1,10.69-1.5,8.38-1.15,16.49-3.72,24.89-4.62,9-1,18.07-1.73,27.12-2.22q6.54-.36,13.08-.51c6.69,17.61,9.11,36.72,11.33,55.43v0c4.43,18.66-1.65,30.28-11.95,45.47v0c-3.63,5.28-6.26,12.22-11.22,16.12-3.55,5.35-7.91,10.08-11.65,15.28l0,0a192.22,192.22,0,0,1-22.31,25.73l.07-.06c-12.52,10.68-25.21,21.18-38.18,31.33l.21-.17c-12.08,10.38-27.42,15.7-42.47,20.11-11.4,2.87-21.62,8.72-32.83,12-5.11,1.58-10.52,2.92-15.4,5.08-11.51,5.42-24.71,5.4-36.87,8.59-14.75,2.86-28.63,11-39.91,20.62-15,8-27.3,17-27.44,35.56a33.64,33.64,0,0,1-1.28,11.09c-.5,1.74-1.53,3.71-.95,5.51,3.59,2.81,8.36,3.67,11.52,7.11,6.4,5.61,13.92,9.67,20.55,15l-.15-.1,4.14,2.79-.21-.15.72.49-.21-.15c20.77,15,43.85,27.64,70,29.26,4.67-.69,10.4.25,15.42-.36,4.56.19,9.95-.68,14.09,1.15,16.79-2,34-.44,50.69-1.57,23.86-1,48.27.16,71.75-2.88,1.43-.19,3.1-1.2,4.43-1.76l4.58-1.94c2.81-1.17,5.67-1.93,8.5-3a109.64,109.64,0,0,0,17.17-8.06c2.42-1.47,4.71-3.45,7-5.13,2.5-1.82,5-3.67,7.48-5.48a157.47,157.47,0,0,1,15.5-10.2c1.3-.73,2.61-1.42,4-2.08,10.54-8.41,20.76-17.24,31.87-24.92,1.46-.84,2.93-2.53,4.73-2.22C408.66,602,419.21,588,430.62,576.5c13-13.78,24.5-28.6,35.88-43.7a1.34,1.34,0,0,1-.11.14l.45-.57-.11.15c7.13-8.42,13.12-17.66,18.91-27,4,16.1,5.4,32.63,9.49,48.71,6.1,19.17,11,39,19.87,57.16l-.06-.12c5.32,11.82,11.25,26.28,23.41,32.32A71.68,71.68,0,0,1,530.74,628.79Z"/><path class="cls-3" d="M271.64,473.26h0Z"/><polygon class="cls-3" points="271.65 473.24 271.65 473.25 271.64 473.26 271.65 473.24"/><path class="cls-3" d="M353.29,321.19l-.07-.06-.06-.06.13.12Z"/><path class="cls-2" d="M524.68,612.4c-9.64-24.09-15.57-48.65-21-73.89-8.45-26-11.13-53.39-14.9-80.46-6.67-22.89-1.27-47.88-9.3-71.16-1.08-4.32-3.42-8.15-5.64-11.71-2.33-7.09-4.8-19.11-12.81-21.55.06-.78,1-1.11,1.8-1.23,22.09-3.47,42.32,8.89,62.82,15.13,20.43,4.72,42.27,10.54,60.65,15.05,1.74.94,4,3.57,6,1.79,9,4,11.38,26.23,13,35.7,10,49.2,16.15,103.42-.8,152.87-2.84,8-5.41,21-11.58,29-1.22,4.14-1.93,8.24-4.86,11.29-7,13.9-14.43,28.79-28.32,36.74C534.44,654.62,531,632.25,524.68,612.4ZM144,303.78c10.87-10.64,22.9-21.27,37.36-26.52,8-7,17.57-10.71,27.71-13.27,14.81-3.49,30.26-10,45.64-8,4.41.5,11.89,2.13,14.35,3.88a.72.72,0,0,0,.08,1.32c3.85,2.17,8.79.92,12.16,3.93,26.85,6.55,50.59,24,65.46,46.51,2.27,3,7.06,6.27,7.48,9.45-4.42-2.2-8.88-6.46-14.89-6.19-11.63-3.36-23.8-1.53-35.74-1.92-8.56-1.42-17.33-.75-25.89.44-25,.87-48.16,5.42-70.53,14.64-19.65,4-22.65,10.17-29,28.18-10.48,15.06-11.62,33.09-19.06,50.85-5.32,14.38-8.85,32.92-11,48.64-.53,12.72,6.17,24,9.79,35.61.93,3,2.32,5.83,3,8.8-3.82,11.45-3.8,5.64-9.37-1.3-8.13-11.81-16-27.07-27.91-37.75-6.71-7.14-12.6-18.6-15-29-3.86-26.26,5.41-50.71,9.52-76.37C124.45,337.42,131,318.29,144,303.78Zm88.68,25c.11.79-.59.63-1.18.77Z"/><path class="cls-4" d="M28.45,627.1a25.56,25.56,0,0,1-15.77-8.93c-2.11-4.91,4.11-9.57,5.46-14.16,2.42-4.74,4.84-9.47,7.5-14.08,1.95-3,7.41-1.48,10.73-1.24,3.72,1.23,9.4-.24,8.63,5.66,4,6.71-.94,13.5-2.49,20.29-1.7,3.23-1.52,15.77-7.54,11.62a12.58,12.58,0,0,1-6.52.84Z"/><path class="cls-5" d="M457.77,544.09c-.93,1.2-1.8,2.46-2.71,3.67a143.15,143.15,0,0,1-11.12,13.36c-2,2.19-4.27,4-6.34,6.17s-4.18,4.53-6.16,6.89c-3.88,4.62-7.6,9.48-11.58,14-2.62,3-5.78,6.13-8.56,9a118.83,118.83,0,0,1-13.53,12.13c-3,2.25-6.09,4.28-9,6.62-3.37,2.69-6.61,5.52-10.06,8.13-2.94,2.22-5.89,4.44-8.87,6.61-2.74,2-5.8,3.75-8.43,5.87-3.65,2.94-7.67,5.35-11.54,8-2.84,1.92-5.53,4.44-8.52,6.1a17.22,17.22,0,0,0-3.17,2c-1.22,1-2.43,2.11-3.73,3.06q-3.87,2.83-7.93,5.43c-2.15,1.37-4.32,2.84-6.59,4-2.06,1-4.67,1.13-7,1.33-3.95.34-7.92.55-11.87.82-13.36.89-26.73,1.67-40.1,2.24s-26.56.93-39.85,1a257.6,257.6,0,0,0-34.67-2.16c-.85,0-4,0-4.86-.07s-3-1-3.72-1.17a134.34,134.34,0,0,1-26.8-11.21c-3-1.82-7.28-3.28-10.18-5.6-7-13.68,8-23,18.66-27.71l0,.07c6.41-2.74,13.36-4.17,20.07-6.58,11.5-4,23.65-5.43,35.76-7,21.25-3.39,42.74-1.16,64.06-3.82a140.91,140.91,0,0,0,39.69-11.36c18.34-7.67,38.33-17.25,54.7-29,14.22-10.43,27.92-21.62,41.31-32.84,11-8.67,21.69-15.17,33-23.23a270.63,270.63,0,0,1,33.54-21.08c-.3.15,1.15,6.45,1.27,7.12.45,2.45.9,4.91,1.36,7.36a28.42,28.42,0,0,1,.71,3.61c.05,1-.68,1.51-1.25,2.26a40,40,0,0,0-3.61,5.61,14,14,0,0,1-2.11,3.13,37.54,37.54,0,0,0-2.72,3.85c-1.75,2.53-3.47,5.08-5.36,7.51-1.3,1.69-2.63,3.33-3.85,5.09-.63.91-1.27,1.82-2,2.68s-1.46,1.43-2,2.22l0-.06A55.57,55.57,0,0,0,457.77,544.09ZM323,364.55c-.24-1.48-.5-2.95-.78-4.42-.37-1.86-1.05-3.73-1.27-5.6-.49-4-.38-8-1.73-11.86-1.12-3.2-1.28-6.82-2.19-10.13-.67-2.43-1.26-4.91-2-7.32a61.93,61.93,0,0,0-2.41-6.19,55.52,55.52,0,0,1,12.33.9c3.88.8,7.72,1.83,11.65,2.35.92.12,1.86.22,2.76.43,3.75.89,6.45,3.51,9,6.16a39.06,39.06,0,0,1,3.67,4.55c.55.79,1.08,1.6,1.6,2.41a10.49,10.49,0,0,0,1.32,2.1c3.42,3.09,4.67,7.65,6,12,3.3,4.83,4.46,12,5.53,17.72.31,2.11,1.35,4.08.62,6.06a96.22,96.22,0,0,1,2.46,12.34c1.1,5.27,2.65,9.73,2.21,14.93a34,34,0,0,1-.12,4.51,53.79,53.79,0,0,1,.54,12.93c2.53,13.26-22,34.93-30.67,44.31-7.08,8.41-15,15.65-23.31,22.73l0,0,0,0,0,0a116.11,116.11,0,0,1-11.34,9.16,192.05,192.05,0,0,1-32,18.35c-4.6,2.1-9.24,4.29-14.16,5.55-4.17,1.07-9,1.54-12.77-1l.07.06-.26-.23.07.06c-4.73-4.34,1.24-10.26,3.65-14.25,3.67-5.19,7-10.6,10.84-15.71l0-.05a83.17,83.17,0,0,0,5.27-9.34c.65-1.35,1-2.84,2-4a22.35,22.35,0,0,1,3.28-3.17,37.65,37.65,0,0,0,4.51-5.08c2.9-3.44,5.71-7,8.68-10.36,1.34-1.52,2.17-3.15,3.33-4.75s2.22-2.82,3.39-4.22c2.62-3.12,5.12-6.35,7.5-9.66,1.44-2,2.69-4.24,4.22-6.18a41.84,41.84,0,0,0,3.86-5.12,28.86,28.86,0,0,1,2-3.36l3.21-4.26c2.69-3.56,4.77-7.74,7.08-11.56a25.45,25.45,0,0,0,3.08-7.19,63.71,63.71,0,0,0,1.54-8.63,51.8,51.8,0,0,0-.28-11.27C324.37,374.35,323.81,369.42,323,364.55Z"/><path d="M399.15,47v0c4.56-9.58,10.36-19,19.49-24.83,5.22-3.42,11.07-6.47,17.48-6.22,3.89-.19,7.26,2.16,11,2.93,5.33,1.12,11,1,16,3.11l-.05,0c13.13,4.41,21.05,16.88,29,27.46,4.15,5.57,9.23,10.44,12.75,16.47a244.19,244.19,0,0,1,16,36.41l0-.1c2.25,6.34,5.64,12.21,7.66,18.64,3.89,12.1,2.48,24.91,3.36,37.4v-.06q.24,3.49.47,7v0c1.08,12.85,3.67,25.54,4.43,38.43v-.11c.86,11,.53,22.08.85,33.12.39,12.2.76,24.43-.16,36.61h0c-.45,7.31-.44,14.64-1.15,21.94v-.11c-1.33,24.27-6.12,48.17-9.44,72.18,11.72,2.79,23.34,6,35,8.84,10.75,2.71,21.92,4.29,32.21,8.53h0a26.48,26.48,0,0,1,2.87,1.67h0l.93.64c9.6,25,11.5,52.08,16,78.31-.38.84-.77,1.69-1.15,2.54-2.47-18.11-5.72-36.12-8.65-54.16a.36.36,0,0,1,0,.1c0-.12-.05-.25-.07-.38h0c0-.17-.07-.34-.11-.51,0,0,0,0,0,0s0-.06,0-.09h0c-1.45-7.8-4.11-15.3-6.39-22.89,0,0,0,0,0,0a.93.93,0,0,1,0-.13h0l0,0h0c-.12-.42-.43-.89-.23-1.34l-1.07-.74.09.06c-8.6-5.18-19.36-6.2-29-8.75-10.93-2.24-21.56-5.67-32.45-8.1-10.58-2-20.36-6.63-30.4-10.34-7.78-3-16-4.78-24-6.93h.07l-.09,0h0c-1.57-.33-3.16-.56-4.76-.76h.1a78.4,78.4,0,0,0-11.26.2h0l-1.82.13a9.55,9.55,0,0,1,5.18,4.66h0l0,0h0a4.27,4.27,0,0,0,.4.8v0a.08.08,0,0,0,0,0v0c.14.31.26.63.42.93l0-.05c4.95,11.43,10.17,22.83,13.17,35A221.29,221.29,0,0,1,485.36,424v0c4,61.36,17.92,121.65,37.1,179.94h0c.84,2.41,1.7,4.83,2.54,7.25l0-.1c1.16,3.29,2.35,6.56,3.46,9.87v0l.21.6v0a122.46,122.46,0,0,0,5.74,13.93l0-.08c2.14,3.54,3.76,8.12,7.35,10.39l-.09-.05a62.2,62.2,0,0,0,5.7,2.59l-.1,0a15.72,15.72,0,0,0,1.66.47h0a34.35,34.35,0,0,0,5.74.28c2.28,0,4.79.27,6.74-1.15,2.88-2.07,5.22-4.75,7.76-7.22,2.34-2.64,5.38-4.65,7.23-7.71l-.06.09c7-11.91,13.2-24.34,19.59-36.6a1,1,0,0,0,0,.1c3-6,4.84-12.51,7.17-18.79h0l0-.1,0,0a180.29,180.29,0,0,0,4.95-18.44.36.36,0,0,0,0,.1c1.15-5.89,2.27-11.79,3.25-17.71.53.09,1.07.14,1.6.19-3.72,26.37-12,51.88-25.67,74.79-3.56,6.39-6.45,13.22-10.81,19.12-2.95,3.24-6.3,6.11-9.32,9.3-2.19,2.18-4.52,4.7-7.63,5.41-5.06.32-10.55.78-15.17-1.72h0c-23.35-9.86-32.84-44.23-40.6-66.41-6.35-20.28-12.51-40.61-15.87-61.64a.3.3,0,0,1,0,.1c-.56-2.63-1-5.27-1.58-7.91a.17.17,0,0,1,0,.07c-.38-1.77-.8-3.52-1.17-5.29-17.86,27.6-39.18,52.89-61.56,76.91h0a214.24,214.24,0,0,1-20.83,21.88c-6.67,5.7-13.95,10.61-20.83,16C365,635.83,347.24,648,329.41,659.9l.08-.06c-11.56,8.18-25.07,12.75-38.4,17.15h.14l-.45.12h0l-.1,0h0l-.47.12.07,0-.06,0,.06,0a13.23,13.23,0,0,0-1.76.53l.05,0-.1,0h0l-.08,0h0l-.56.23.1,0a11.44,11.44,0,0,1-6.55,1.1h-.2c-35.21,1.55-70.53,2.17-105.76,2.5-15-.42-30-.53-45.07-1.18-7.18-.85-14.18-3.23-21.1-5.29l.09,0A141.08,141.08,0,0,1,78.48,658.7l.06,0-.34-.24h0c-5-3.4-10.57-6.08-15.41-9.79-7.89-6.51-16.48-12.09-24.56-18.36l.08,0c-1.86-1.34-4.11-1.87-6.12-2.91-2.48-.1-5.22.41-7.55-.53-.89-.57-1.8-1.12-2.68-1.71l.09.06-.51-.34,0,0-.09-.06h0a29.5,29.5,0,0,0-3.12-1.82l.09,0c-3-1.43-7.08-3.78-7.07-7.47,2.8-6.56,6.49-12.76,9.93-19a75.82,75.82,0,0,0,4.55-7.92,1.88,1.88,0,0,1,1-1,57.94,57.94,0,0,1,13,1c-.17-.7.6-1,1.06-1.33l0,0,.09-.06h0c10-6.66,19.13-14.5,29.21-21h0l.58-.39h0l1.66-1.12h0l.25-.16h0l.45-.3h0c13.41-9.72,30.27-12,46.17-14.85l-.1,0c11.61-2.19,22.57-6.62,33.62-10.68,16.64-5.24,32.79-11.87,49.49-16.92h0c6.66-2.62,13.39-5.39,19.34-9.42l0,0c6.31-4.12,11.66-9.47,17.77-13.85,5.86-4.59,12-8.87,17.48-13.87l-.07.06c2.93-2.63,5.86-5.35,8.82-7.89h0c8.51-7.34,15.21-16.38,22-25.28,6.63-8.51,13.4-16.94,19.53-25.82h0c2.4-3.56,4.62-7.24,7.16-10.7l0,0c.15-.23.31-.45.46-.67h0c3.53-6,7.64-11.82,8.9-18.74h0a36.46,36.46,0,0,0,.61-4v0a87,87,0,0,0-.09-10.83v0c-1.11-13.36-3.54-26.6-5.84-39.81h0c-1.73-7.2-3.14-14.62-6.24-21.37-8.21-.08-16.41.36-24.6.87h.11c-9.23,1-18.48,2-27.58,3.84l.11,0c-8,1.8-16.2,2.53-24.23,4.14l.1,0a81.87,81.87,0,0,0-9.2,2.53h0c-7,2.57-13.9,5.52-20.65,8.75l.09-.05-.37.19.09,0a120,120,0,0,0-12.73,7.9c-3.34,3.66-4.63,8.79-6.42,13.32l0-.07c-5,15.44-12.5,30-16.46,45.81-2.57,8.78-4.55,17.7-6.81,26.55-1.86,6.69-5,13.14-5.28,20.18a.41.41,0,0,1,0-.11c0,.33,0,.66-.07,1v-.08a31.45,31.45,0,0,0,2.27,12.63.42.42,0,0,0,0-.1c3.18,8.84,6.28,18.12,6.54,27.58a17.17,17.17,0,0,1-6,12,.78.78,0,0,1-.86.14c-5.18,2.78-9.13-6.85-11.47-10.22-3.43-5.69-7.08-11.25-10.73-16.8l0,.06c-9.55-13.17-22.12-24.67-27.59-40.39a101.3,101.3,0,0,1,0-49.48s0,.07,0,.11c3.57-16.65,5.87-33.83,12.81-49.52,2.42-5.23,3.87-10.86,6.49-16,2.76-5.54,6.42-10.57,9.65-15.83h0c11.09-16.55,44.56-37.45,63.72-43.23l-.09,0c9.95-3.93,20.53-5.72,30.8-8.6,12.59-3.83,26.42-1.74,38.17,3.79,8.53,3.07,17.36,5.31,25.66,9a141.36,141.36,0,0,1,14.8,8.43c4.13,2.54,8.47,4.74,12.37,7.62,4.32,3.44,8.71,6.92,12.14,11.28,4.07,4.9,7.26,10.46,11.3,15.39h0a78.72,78.72,0,0,1,14.47,19.49c6.27-16.43,8.27-34.1,14-50.69h0l0-.09h0c7.21-22.31,13.95-45.08,15.36-68.6v.1c1.68-42.59.79-85.19.2-127.78-.55-13.59,0-25.73,7-37.85ZM313.59,319.88c4.64,11.09,6.59,23.15,8.48,35,1,7.42,2.55,14.76,3.19,22.23,2.28,19.55-1.32,26.94-12.31,42.74-2.76,4-5.31,8.07-8.13,12-5,7-10.37,13.82-15.73,20.59S278.48,466,272.51,472.28c-1.32,1.38-2.66,2.73-4,4s-2.89,2.4-4.2,3.71l0,0a264.28,264.28,0,0,1-23,19c-6.18,4.37-11.6,9.7-17.84,14-10.67,7.63-23.43,11.24-35.74,15.25l.07,0c-11,4-21.87,8.14-33,11.6l.09,0C143,544,131.33,549,118.85,551.22c-15.45,2.71-31.8,5-44.81,14.45a.1.1,0,0,0,0,0l-.33.23-.35.24,0,0-.18.12,0,0-.81.55.09-.06c-1.44,1-2.89,1.93-4.35,2.91l0,0c-9.12,6.17-17.57,13.29-26.76,19.38.8.27,2.37,0,2.7.91,1.88,2.76,2.42,6.21,3.79,9.23,1.28-.45,2.6-.75,3.89-1.18l-.09,0,1.33-.47-.09,0a66.66,66.66,0,0,1,6.61-2.23l-.09,0,.85-.3-.08,0c1-.37,2-.77,3-1.15a.71.71,0,0,1,.55,1.3c-1.27.5-2.53,1-3.82,1.42l.09,0c-2.24.67-4.47,1.35-6.64,2.24l.09,0c-1.8.71-3.69,1.11-5.51,1.74-1.3,5.41-3.11,10.66-4.87,15.92l0-.1c-.25.73-.5,1.46-.76,2.19v0c-1.33,3-2,6.48-4.05,9-.82.45-1.79-.15-2.69,0,4.41,1.77,7.77,5.33,11.68,7.95,6.37,4.33,12.38,9.14,18.52,13.77,10.66,6.39,20.74,13.71,31.87,19.28l-.09-.05c9.25,4.85,19.31,7.55,29.41,10l-.11,0c9.5,1.14,19.14.78,28.69,1.12,8.21.09,16.4.54,24.61.53,16.59-.5,33.2-.23,49.79-1q19.75-.35,39.51-1c4.77-.1,9.54-.31,14.32-.55,3.25-1,6.53-1.91,9.76-3l-.1,0,3.54-1.23-.1,0c2.94-1.08,5.89-2.12,8.87-3.09l-.1,0A111.31,111.31,0,0,0,326.49,660l-.08.06.91-.62-.05,0,.51-.34-.08.06c9.27-5.94,18.1-12.46,27.22-18.6h0q14.72-10.29,28.73-21.53c8.32-6.18,16.85-12.14,24.11-19.59a201.85,201.85,0,0,0,14.64-16q11.28-12.56,22.77-24.92c5.66-6.56,10.67-13.63,16-20.46,7-9,14-18,20.38-27.38l0,0a58.19,58.19,0,0,0,3-5.26c-3.37-14.31-6.28-28.73-7.32-43.43-.83-15.25-2-30.47-3.08-45.7,0,0,0,.07,0,.1-.84-11-2.21-22-5.91-32.43C466.43,379.57,465,375,463,370.6c-.3-.68-.32-1.8.55-2A127.08,127.08,0,0,1,473,395.49c2,9.63,2.61,19.49,3.19,29.29v-.1c.29,4.82,1,9.61,1.2,14.44v0l.1,1.55v-.11c.43,5.18.61,10.42.88,15.6V456a276.34,276.34,0,0,0,3.22,28.11c2.09,11.32,5.06,22.45,7.2,33.77a.44.44,0,0,1,0-.1c1.38,6.63,2.57,13.29,3.89,19.93a.36.36,0,0,0,0-.1c2.84,14.13,7.67,27.73,11.69,41.54,5,15.43,9.82,31.1,18.12,45.13,3.91,6.76,8,13.74,14.44,18.42-6.49-9.79-9.64-21.24-13.63-32.17v0c-8.63-24.19-15.27-49-21.51-73.89-5.55-19.23-8.53-39-11.79-58.7-2.37-15.21-4.33-30.48-5.4-45.83-1.38-15.29-1.61-31-6.63-45.64l0,.09c-2.54-8-5.94-15.58-9.23-23.25-1.76-5.38-4.73-10.12-11.15-9.07h.1a35.88,35.88,0,0,0-3.71.49h.1c-3.27.45-6,2.29-8.44,4.43l0,0c-3.9,3.86-7.87,7.68-11.59,11.72l.06-.07c-9.25,11.52-18.78,22.86-27.12,35.07l0-.08c-1.11,1.65-2.18,3.32-3.29,5a.1.1,0,0,0,0-.05l-.44.66,0,0c-1.28,2-2.61,3.91-4,5.83a.35.35,0,0,0,.05-.08,96.53,96.53,0,0,1-10,12.65l.06-.07c-.82,1-1.67,1.93-2.5,2.87l.06-.07-.42.48c-4.37,4.87-8.08,10.26-11.93,15.52a112.88,112.88,0,0,0-8.44,11.15l0-.08a8.33,8.33,0,0,0-.67,1.16L365,462l-1.38,2.37q-1.41,2.4-2.85,4.79c-1.15,1.91-2.31,3.82-3.55,5.69-.26.39-.56.71-.81,1.12l-.89,1.42c-.59.95-1.2,1.9-1.82,2.83s-1.15,1.5-1.69,2.27-1.12,1.64-1.7,2.44a124.91,124.91,0,0,1-8.12,9.95l0,0-.06.07,0,0L342,495l0,0-.2.23,0-.05c-.73.57-1.47,2.46-2.55,1.69-.73-1,1-1.83,1.43-2.63l0,0,.15-.16,0-.07.17-.19.06-.06c9.62-10.37,16.34-22.81,23.71-34.75a74.65,74.65,0,0,0,2.77-10.29l0,.09c2.39-10.45,3.34-21.09,4.08-31.77,0,0,0,0,0,.05.23-5.8.41-11.63.15-17.43v.11a70.87,70.87,0,0,0-2.37-13.4c-.85-5.35-1.89-10.69-2.86-16,0,0,0,.07,0,.1-3-9-3.89-18.71-8.13-27.29l0,.09c-1.73-3.59-4.27-6.68-6.72-9.8l.07.08a61.83,61.83,0,0,0-4.95-5.16l.08.07c-.78-.66-1.52-1.35-2.26-2.05l.08.07c-4.63-4.18-11.09-3.87-16.8-5.18l.1,0c-3.49-.59-7-1-10.54-1.34h.08C316.31,319.92,315,319.89,313.59,319.88Zm-25,357.86h0ZM43.9,609.28c1-3.07,1.93-6.2,2.64-9.34h0l0-.24s0,.07,0,.11c-1.27-3-2-6.42-3.71-9.23-5.14-.57-10.23-1.46-15.42-1.29-3.7,6.8-7.81,13.37-11.42,20.23v0l-.07.15h0l0,.06v0l-.12.24v0l-.1.21,0-.09c-.88,2.1-2.32,4.08-2.8,6.31,0,0,0-.05,0-.08h0v0a6.42,6.42,0,0,0,1.43,2.28l0,0a12.06,12.06,0,0,0,3.62,2.67l-.09,0a31.89,31.89,0,0,1,4.63,2.6l-.09-.06.51.34h0L23,624l0,0c.92.58,1.82,1.18,2.75,1.73a39.51,39.51,0,0,0,5.55.21v0l1.11,0,0,0a31,31,0,0,1,5.28.11A81.73,81.73,0,0,0,41,617.9l0,.1,0-.13,0,.1c.25-.73.5-1.46.76-2.19l0,.09c.61-1.88,1.23-3.77,1.89-5.64h0s0-.1,0-.15l0,.06,0-.1v0l.18-.53,0,.1Zm-9.67,1.38a.74.74,0,0,1-.63-.84c.4-2.24.73-4.49,1.18-6.72v0c.45-1.5.36-3.55,1.42-4.71a.69.69,0,0,1,.94.72c-.09.32-.21.62-.27,1-.39,1.76-.7,3.63-1,5.4-.26,1.55-.49,3.1-.83,4.63a.75.75,0,0,1-.82.54Zm9.67-1.38Zm-5.8-2.15a.78.78,0,0,1-.65-.85q.24-2.61.72-5.19c.28-.78,0-2.3,1-2.45a.71.71,0,0,1,.69.57h0a.71.71,0,0,1-.07.81c-.34,2.15-.58,4.31-.88,6.47a.77.77,0,0,1-.86.65Zm522.76-28.71v0c-.88,8.42-.92,17-1.87,25.44-.24,1,.35,3.12-1.11,3.15-1-.23-.56-1.46-.57-2.18.58-4.28.94-8.59,1.12-12.91s.46-8.36,1-12.51c.09-.52.07-1.31.74-1.39a.68.68,0,0,1,.72.45ZM219.31,563.83l3.68-.77h-.09a200.29,200.29,0,0,0,38.23-11.77c11.8-4.8,23.93-9.21,34.6-16.29a.1.1,0,0,0-.05,0c.44-.34,1.06-.8,1.51-.23a.71.71,0,0,1-.13,1,123.7,123.7,0,0,1-21.26,11C258.71,554,241.47,561,223.17,564.41l.09,0c-4.34,1-8.74,1.65-13.1,2.51h.06c-3.57.75-7.13,1.57-10.69,2.37l.08,0c-7.11,1.59-14.37,2.38-21.54,3.68-1.94.33-3.87.79-5.83,1.07a.65.65,0,0,1-.64-.56.68.68,0,0,1,.56-.75c7.84-1.58,15.78-2.62,23.65-4h0c1.18-.26,2.36-.51,3.55-.75l-.09,0q10-2.37,20.13-4.12l-.09,0Zm314.39-5.15c-.07-1.61-.14-3.21-.25-4.82v0c-.31-3.92-.77-7.82-1.26-11.72,0-1.36-.7-3,0-4.25a.72.72,0,0,1,1.11.81c.42,5,1.42,10,1.74,15.1v-.1l0,.41V554c0,.22,0,.44.05.66,0,0,0-.07,0-.11.09,1.37.18,2.74.22,4.11a.8.8,0,0,1-.8.8.81.81,0,0,1-.81-.8Zm46.28.7v0c.36-2.95.6-5.93,1.07-8.87a.67.67,0,1,1,1.31.24c-.23,1.47-.33,3-.51,4.42h0c-.61,5.43-1,10.88-1.36,16.33a.8.8,0,1,1-1.59-.07c.2-2.86.45-5.73.72-8.59h0c.12-1.17.22-2.34.35-3.51v0a.43.43,0,0,1,0,.05s0-.08,0-.12v0Zm-28.64-47.57v-.06c0,.84.1,1.69.14,2.54v.08h0c.19,4,.93,8,.78,12a.79.79,0,0,1-.79.67.8.8,0,0,1-.78-.79c.06-1.16,0-2.31-.07-3.46v.1c-.3-3.66-.7-7.32-.77-11v0c0-1.78-.19-3.56,0-5.34a.67.67,0,0,1,.59-.57c1.29,0,.61,1.61.78,2.42v0c.06,1.16.11,2.31.15,3.47ZM350.78,317.7c-5.79-5.55-9.65-12.62-14.6-18.86a68.36,68.36,0,0,0-14.53-13.2l.09.07c-9.41-5.46-18.35-12-28.52-16-6.57-2.65-13.41-4.57-20.12-6.82-4.32-1.49-8.33-3.82-12.85-4.7l.1,0a98.69,98.69,0,0,0-11.6-1.63h.11a29.24,29.24,0,0,0-4.08,0h.11a57.74,57.74,0,0,0-7.29,1l.11,0c-9.58,2.72-19.4,4.59-28.9,7.57h0c-6.78,2.52-13.77,4.51-20.26,7.76l.06,0c-7.21,3.9-14.22,8.2-21.07,12.71l0,0c-9.81,6.88-20.21,13.81-26.92,24l0,0-.45.67v0c-3,5-6.46,9.7-9.09,14.91v0l0,.09h0c-3.38,7.43-6,15.18-9.21,22.7l0-.1A186.11,186.11,0,0,0,116.19,369h0c-.86,4.64-1.84,9.25-2.81,13.86a.36.36,0,0,1,0-.1c-.79,3.95-1.57,7.91-2.43,11.86a.11.11,0,0,0,0,0A79.06,79.06,0,0,0,109.12,420v-.08c.57,6.4.83,12.91,2.72,19.09,4.39,12.17,13,22.16,21.2,31.93,8.87,10.07,14.64,22.37,22.39,33.22l0,0a6,6,0,0,0,1.91,1.46l-.09,0a3.16,3.16,0,0,0,1.38.31,16.24,16.24,0,0,0,1.26-5.58v.1c-1-6.16-4.3-11.76-6.48-17.57-2.56-8.05-5.59-16.13-6.12-24.63v.11c-.89-10.73,2.55-21.12,4.91-31.45,2.24-11.94,7.17-23,11.18-34.39,2.19-6.13,3.24-12.58,5.23-18.77,2.22-7.17,5.7-13.81,9.37-20.32l0,.06c2.81-6,4.82-12.72,9.63-17.55,5.34-4.48,11.92-7.07,18.54-9,4.26-1.68,8.6-3.14,13-4.56h0c11.25-4.24,23.23-6.23,35.12-7.7a173.82,173.82,0,0,1,27.7-2.4h-.05c10.73-1.36,21.53-.1,32.3-.57H314a68.11,68.11,0,0,1,14.06.17H328a48.05,48.05,0,0,1,22.63,5.78l-.09-.05.27.14Zm3.73,4.42c-.76-.14-1.19-1-1.78-1.43l0,0c-2.7-2.1-6-3.34-9.15-4.63l.09,0c-2.13-.62-4.26-1.28-6.43-1.8h0l-.1,0h0a42,42,0,0,0-5.24-.7h.1c-3-.13-6-.39-9.05-.64h.11a61.58,61.58,0,0,0-7.19.11h0c-9.64.76-19.31-.47-29,.25h.1c-5.45.63-10.93.57-16.41.8-10.16.91-20.28,2.47-30.36,4.09l.1,0c-5.52,1.3-11.17,2.13-16.54,4l.1,0c-4,1.48-8,2.75-12,4.12h0c-8,3.06-16.62,5-23.28,10.62-4.68,4.71-6.58,11.25-9.36,17.11-1.54,2.94-3.23,5.81-4.72,8.78l0-.09c-4.16,8.09-6.11,17-8.43,25.7-2.5,8.37-5.89,16.44-8.93,24.62a.36.36,0,0,0,0-.09c-2,6.16-3.2,12.51-4.77,18.78-1.77,7-3.55,14.16-3.93,21.45-.36,9.85,3,19.23,5.93,28.48a.36.36,0,0,0,0-.09c1.54,3.94,3.36,7.78,4.83,11.75,1.54,3.68,2.73,7.62,1.17,11.5a15.85,15.85,0,0,0,4.65-8.76l0,.1a17.5,17.5,0,0,0,.13-3.47v.11a45.82,45.82,0,0,0-.61-4.95s0,.07,0,.11c-1.16-5.25-2.44-10.5-4.08-15.62-2.28-6-4.73-12.24-4-18.78v.11c.39-8.3,4.4-15.81,6.18-23.82,4.64-20.51,10.66-40.71,19.3-59.91,2.89-7.37,4.47-15.46,8.95-22.1,1.89-2.31,4.72-3.51,7.18-5.1a55.73,55.73,0,0,1,7.13-4.23l-.09.05a216.64,216.64,0,0,1,22.31-9.34c9.5-3.12,19.57-3.72,29.33-5.64l-.1,0a251.38,251.38,0,0,1,43.67-5.14c10.14-.44,20.4-.44,30.35,1.81l-.1,0c4.82.66,9.87,1.12,13.95,4.07A62.83,62.83,0,0,1,359.15,341c3.78,6.77,5.23,14.47,6.89,22,2,5.37,2.83,11,3.88,16.62.9,6.69,3.07,13.12,3.44,19.88.51,18.75-1.12,37.73-5.94,55.89,2.55-4.28,6.92-7.54,8.81-12.13,0,0,0,.07,0,.1,1.42-8.76,2.92-17.55,3.57-26.42V417a151.34,151.34,0,0,0-.16-15.94s0,.07,0,.11c-1.05-11.37-4.83-22.24-6.3-33.54v0c-2.46-10.94-5.55-21.89-10.58-31.95a.93.93,0,0,0,.05.1,115,115,0,0,0-6.46-11.18l.06.09c-.61-.89-1.23-1.76-1.89-2.61Zm165.3,170.49c-.27-5.25-1-10.45-1.51-15.68h0v-.06a46.84,46.84,0,0,0-1.33-7.43c-.32-.65-.38-1.9.68-1.64h0c.54.21.46.9.68,1.35l0-.09c1.78,6.29,2,12.89,2.78,19.34-.08,1.11.94,4.76-.47,4.9a.75.75,0,0,1-.79-.7Zm48-8.61a.57.57,0,0,1,0,.13V484l0,.54v-.11c0,.24,0,.48,0,.72a.41.41,0,0,1,0-.11c-.12,1.09.75,3.89-.63,4.2a.79.79,0,0,1-.87-.89c-.07-4.24-.27-8.49-.47-12.73v0c-.27-3.19-.78-6.36-1.14-9.54a.67.67,0,1,1,1.33-.14c.48,3.19,1,6.37,1.29,9.58v0h0v0a1.21,1.21,0,0,0,0,.19h0c0,.08,0,.15,0,.23v0c0,.05,0,.1,0,.15v.17a1,1,0,0,0,0,.17s0-.07,0-.1,0,.2,0,.3v0l0,.46v.05c0,.08,0,.16,0,.25a.41.41,0,0,1,0-.11c0,.13,0,.26,0,.39v-.1c0,.1,0,.19,0,.3v-.1c0,.07,0,.15,0,.22v-.1a1.21,1.21,0,0,0,0,.19h0l0,.34v0a.13.13,0,0,1,0,.06v.07h0v0c.09,1.84.14,3.68.26,5.52a.43.43,0,0,0,0-.05Zm27,14.07c0-.41.05-.82.08-1.22v.1c0-.29,0-.58.07-.86h0c0-.31,0-.62.07-.94v0a175.55,175.55,0,0,0,.32-17.62,2.28,2.28,0,0,1,.21-1.55.68.68,0,0,1,1.18.24,198.69,198.69,0,0,1-.26,20.12h0c-.18.82.29,2.43-.9,2.54a.78.78,0,0,1-.76-.78Zm-463.44-46c.71,1.3,5.46,7.19,3.8,8.11a.73.73,0,0,1-.95-.39c-1.57-3.92-4.37-7.16-6.39-10.85A.68.68,0,0,1,128,448a.69.69,0,0,1,.92.24c.79,1.3,1.6,2.58,2.42,3.87l-.06-.08Zm403.34-1.11c-.83-6.51-2-13-3-19.48v0a27.79,27.79,0,0,0-1.22-4.21.69.69,0,0,1,.36-.89c1.26-.42,1.57,2.69,2,3.54,1.24,5.24,1.66,10.64,2.79,15.9,0,1.19,1.47,5.63,0,5.8a.8.8,0,0,1-.89-.68Zm-9.2-84.61h0c2.67-22.66,7.54-45,8.93-67.84a.41.41,0,0,1,0,.11c.2-3.24.45-6.48.68-9.71V289c.42-6,.32-12,.84-18v.11c.84-12.72.24-25.47-.08-38.2-.17-9.2,0-18.43-.64-27.61v0c0-.56-.07-1.13-.11-1.69v0c-.81-14-3.89-27.81-4.65-41.84h0c-.81-8.57-.51-17.18-.91-25.77v.05c-.47-10.22-4.1-19.79-8.55-28.89A336.4,336.4,0,0,0,507,73.66h0a80.65,80.65,0,0,0-5.31-9.53l.06.09c-2.8-4.05-6.1-7.7-9.25-11.47C488,46.53,483.39,40.3,478.25,34.5l.07.07A41.56,41.56,0,0,0,466.22,25h0s0,0,0,0h0a15.6,15.6,0,0,0-2.27-1l.1,0a54.67,54.67,0,0,0-5.44-1.75l.11,0c-6.21-1.08-12.61-1.29-18.43-4l.06,0-.09,0h0c-5.06-1.68-10.71-.28-15.31,2.11l.09-.05A46.17,46.17,0,0,0,407.87,34.9s0,0,0,0l0,.05h0a98.07,98.07,0,0,0-6.74,11.79,1,1,0,0,1,0-.1c-.47,1-1,1.94-1.47,2.91l0,0a.59.59,0,0,1,0,.08h0a55.66,55.66,0,0,0-5,14.15.36.36,0,0,1,0-.1,67.81,67.81,0,0,0-.89,7.92h0c-.18,10.8.08,21.61.07,32.42.12,7.25.83,14.48.7,21.74,0,26.27,0,52.57-.68,78.84-.49,14.35-2,28.81-5.94,42.64-3.13,12-6.16,24.09-10.39,35.79v0c-3,8.27-4.47,17-6.53,25.51-2.44,8.33-4.17,17-7.64,25,6.91,13.43,10.91,28.3,13,43.21,0,0,0-.07,0-.11,6.82,24.32,6.15,40,1.86,64.54,2.72-3.58,5.48-7.12,8.53-10.43,0,0,0,0,0,0l.05-.06-.06.08c1.32-1.55,2.69-3.06,4.08-4.53l-.06.07c2.28-2.74,4.54-5.48,6.55-8.42l0,0c1.63-2.42,3.32-4.79,4.9-7.24l0,.05.23-.34,0,.07c.1-.13.19-.27.28-.4l0,0c1.69-2.56,3.36-5.12,5.14-7.61A8,8,0,0,1,409,400.2h0c5.91-7.7,11.79-15.4,18-22.89,4.34-6,9.57-11.21,14.8-16.44a.23.23,0,0,0-.07.07,33.57,33.57,0,0,1,8.6-6.82,54.22,54.22,0,0,1,14-2.53h-.1A55.22,55.22,0,0,1,488,354c12.95,2.73,24.95,8.41,37.38,12.76l0-.18c.08-.07.07-.18.09-.28ZM577.81,449a.88.88,0,0,1-.24-.62v0a167.65,167.65,0,0,0-1.46-19.27c0-.47,0-1.13.58-1.27s1.28.79.86,1.33v0A109.71,109.71,0,0,1,579,444.38c0,1.36.13,2.73.2,4.09a.81.81,0,0,1-1.37.56Zm-459.3-25.2c-.79-4.62-1-9.35-1.42-14,.22-1.15,1.58-.73,1.35.46v0c.55,4.37.75,8.79,1.57,13.12a.78.78,0,0,1-1.5.41Zm382.37-24.95a.89.89,0,0,1,.22.8c.36,1.26.59,2.54.85,3.82v0c.68,4,.74,8.07,1.44,12.06v0c.29.61.36,1.57-.55,1.6-1.57-.22-1.26-4.47-1.57-5.81a84.55,84.55,0,0,0-1.17-9.77.64.64,0,0,0,0,.07l0-.09h0a12.51,12.51,0,0,1-.43-2.39.67.67,0,0,1,1.23-.26ZM548,415c-.06-.57-.08-1.14-.12-1.71v.11l0-.35v.11c-.73-6.75-1.81-13.46-2.42-20.21,0-1,1.54-.79,1.42.13.66,5.19,1.25,10.47,2.09,15.66,0,1.34,1.46,6.77-.24,6.9A.74.74,0,0,1,548,415Zm-408.39,2.57a.76.76,0,0,1-.52-.92c.9-3,1.68-6.06,2.48-9.1,1.15-4.36,2.41-8.68,3.43-13.07a.68.68,0,0,1,.74-.49.69.69,0,0,1,.58.76c-.7,3.35-1.65,6.63-2.51,9.94-.79,3-1.54,6-2.33,9C141,414.62,141,417.84,139.57,417.58Zm248.62-27.45c-1.13-.28-.35-1.67-.28-2.44v0h0v0l.1-.46s0,.06,0,.09a105,105,0,0,0,1.68-10.73.66.66,0,0,1,1.31.09,91.69,91.69,0,0,1-1.37,9.48c-.21,1.11-.41,2.22-.61,3.34A.73.73,0,0,1,388.19,390.13ZM128.6,403.53c.29-5.44.69-10.86,1-16.29a.67.67,0,1,1,1.34,0c-.17,3.4-.34,6.81-.54,10.21-.29,2.16.09,4.54-.52,6.6A.74.74,0,0,1,128.6,403.53Zm372.28-4.65Zm0,0h0Zm-93.07-19.71a.73.73,0,0,1-.5-.89c.38-1.71.84-3.41,1.32-5.1.41-.86,1.49-7.17,2.88-5.35-.17,2-1.13,3.91-1.54,5.89-.44,1.65-.88,3.29-1.28,5A.72.72,0,0,1,407.81,379.16ZM141.75,370a.78.78,0,0,1,0-1.07c1-3.24,1.81-6.61,2.86-9.86.9-2.41,1.31-5.14,2.64-7.33a.68.68,0,0,1,1.14.57c0,.42-.42.67-.49,1.09l0-.09c-1.42,4.34-2.72,8.72-3.87,13.14C143.57,367.46,143.57,371,141.75,370Zm-12.81-7.07a.76.76,0,0,1-.52-.92c.65-3.05,1.19-6.12,1.84-9.17,0,0,0,.06,0,.09l0-.12h0c.18-.85.35-1.71.53-2.56h0a34.49,34.49,0,0,0,.84-6,.74.74,0,0,1,.2-1.14c2.72-1.23-.08,8.64-.16,10v0c-.18.88-.35,1.77-.53,2.66h0c-.45,2.21-.77,4.45-1.28,6.65a.77.77,0,0,1-.93.52ZM387.3,349.62a.69.69,0,0,1-.6-.77c.55-2.71,1-5.44,1.59-8.15,0,0,0,.05,0,.07.36-1,.27-3.33,1.59-3.56,1.2.05-.08,2.18-.07,2.91v0c-.61,3-1.11,6-1.75,9A.68.68,0,0,1,387.3,349.62ZM176.69,325l0-.08h0c.54-.65.54-2.35,1.53-2.31a.67.67,0,0,1,.57.75,21.1,21.1,0,0,1-2,4.34c-3.19,5.52-6.53,11-9.82,16.42-.79.9-2-.38-1.08-1.19l-.06.08C169.4,337,173.39,331.2,176.7,325c0,0,0,0,0,0Zm335.16,10.17a.72.72,0,0,1-.61-.8c.18-1.37.36-2.75.51-4.12s.14-3,.66-4.4c.26-.41.87-.7,1.12-.1a75.07,75.07,0,0,1-.89,8.82A.71.71,0,0,1,511.85,335.21Zm-32.62-.35a.73.73,0,0,1-.62-.81c.23-2.49.63-5,1-7.43.27-.87.41-5.32,2-3.95-.15,2.28-.73,4.56-1,6.85-.22,1.58-.44,3.15-.61,4.72A.72.72,0,0,1,479.23,334.86Zm-328-6.18a.78.78,0,0,1-.27-1.05c2.94-5.37,5.66-10.86,8.64-16.21a.3.3,0,0,0,0,.08c.3-.81,1.52-2.68,2.25-1.27.17.65-.66.85-.84,1.49h0c-1.18,2.34-2.46,4.64-3.65,7a.2.2,0,0,0,0-.08c-1.09,2.18-2.21,4.33-3.3,6.51a.36.36,0,0,0,0-.09c-.66.89-1.49,4.26-2.87,3.66Zm250.51-16.74c-.57-.15-.58-.76-.42-1.22l0,.1c.55-3.44.78-6.93,1.4-10.35.31-.84,0-3,1.28-2.81a.69.69,0,0,1,.45.9h0c-.65,3.11-.94,6.29-1.32,9.45-.31,1,.1,4.12-1.37,3.93Zm95.56-5.18c.36-4.74.23-9.54.73-14.25.12-.43.91-1,1.22-.4a7.43,7.43,0,0,1,0,1.7v0c-.16,4.33-.22,8.66-.5,13A.74.74,0,0,1,497.35,306.76Zm-268.56-.23c-3.74-2,13.86-3.61,15-3.72h-.06l.36,0h0l.3,0h.26c1.21-.09,2.45-.15,3.66-.21.63-.05,1.56-.24,1.69.62a.8.8,0,0,1-.68.89c-1.82.2-3.66.16-5.49.31h0C238.73,304.57,233.74,305.78,228.79,306.53Zm-34-3.29c-.84,0-.66-1-.08-1.33,2.86-1.38,5.81-2.63,8.68-4q8.26-4.08,16.77-7.63a.8.8,0,0,1,.62,1.48c-1.56.69-3.13,1.34-4.7,2C208.87,296.69,202,300.5,194.76,303.24Zm101.09-2.92c-1.25-.05-.69-1.38.25-1.47a53.34,53.34,0,0,1,15.45.23.8.8,0,0,1-.22,1.59A55.38,55.38,0,0,0,295.85,300.32Zm218.32-12.07c.4-5.11,1-10.23,1.16-15.34a.68.68,0,0,1,1.25,0,45.85,45.85,0,0,1-.13,6c-.24,3.41-.57,6.83-.9,10.24a.71.71,0,0,1-.71.62c-.8,0-.75-.88-.67-1.47v0Zm-235.5.78-2.17-.46h0l-.14,0,.11,0a40.15,40.15,0,0,0-14.48-.83,2.38,2.38,0,0,1-.92,0c-.62-.2-.44-1.23.16-1.36,4.75-1,9.8-.41,14.54.46,1,.41,4.18.17,3.9,1.67A.81.81,0,0,1,278.67,289Zm-93.48-.66c-.68-1.31,1.57-1.83,2.33-2.5,3.29-2,6.66-3.85,9.9-5.91.65-.68,2-.13,1.37.82-.24.3-.54.73-1,.67-3.79,2.5-7.78,4.68-11.62,7.12A.78.78,0,0,1,185.19,288.37Zm36.28-9.74c0-.68.71-.9,1.25-1,2.84-.75,5.68-1.48,8.55-2.11,2.61-.57,5.25-1,7.89-1.42a.79.79,0,0,1,.89.67.81.81,0,0,1-.67.88c-5.66.81-11.23,2.07-16.78,3.44A.67.67,0,0,1,221.47,278.63Zm58.61-4.89a36.83,36.83,0,0,0,5.54,2.35c1.6.55,3.23,1,4.82,1.59a.79.79,0,0,1-.52,1.49c-2.29-.74-4.59-1.49-6.83-2.36a55.34,55.34,0,0,1-6.87-3.59.7.7,0,0,1-.28-.85c.56-1.25,3.21,1.1,4.17,1.39l-.09-.05.06,0ZM490.75,75c.17.39.33.77.46,1.17l0-.08c.87,2.23,1.94,4.38,2.89,6.58a.71.71,0,0,1-.37.91.7.7,0,0,1-.9-.37,65.75,65.75,0,0,1-3.15-7.33c-.13-.51-.52-1.12-.19-1.62a.94.94,0,0,1,.72-.23C490.52,74.16,490.57,74.65,490.75,75Zm-19.06-2.91c-.88-2.06-2.48-3.89-3.08-6a.57.57,0,0,1,.17-.41.7.7,0,0,1,1.05.28c1.81,2.95,3.39,6,4.95,9.14.22.93,2.42,2.88.66,3.26a.67.67,0,0,1-.55-.27A58.1,58.1,0,0,1,471.69,72.05Zm0,0h0Zm3.75-21.72-.08-.1,0,0c-.36-.71-3.15-3-1.44-3.27,1.57.51,2.57,2.68,3.68,3.87l-.06-.07c1.5,2,3.06,3.89,4.5,5.91a.73.73,0,0,1-.65,1.12c-.86-.25-1.19-1.38-1.8-2l.06.08c-.47-.61-.94-1.21-1.4-1.83l0,0-.92-1.2,0,.05-1-1.3,0,.05-1.09-1.45Zm-21.89-8.74-.16-.23,0,0c-.32-.71-1.51-1.55-.89-2.35a.71.71,0,0,1,1.14.29l0,0,.05.07,0,0c2.16,3,4.21,6.09,6.16,9.23a.74.74,0,0,1-1.28.75q-2.08-3.41-4.31-6.7l.05.07-.13-.19,0,0-.63-.94Zm-1.32,2.86,0,.07,0-.07Z"/><path class="cls-6" d="M471.1,232.08c-5.32,14.66-16.28,27.09-28.79,36.14l.08-.06c-4.23,2.71-8.65,5.19-13.69,6.06.13,4.14,6,6.37,9.75,6.31,13.71-.53,22.66-14.61,27.2-26.18l0,.09a99.6,99.6,0,0,0,3.69-12.08v0l.24-1.09s0,.06,0,.09A40.23,40.23,0,0,0,471.1,232.08Z"/><g id="eyes"><g class="cls-7"><path id="whites" class="cls-8" d="M413.73,197.75c7.87-1.09,16.61,1,21.95,6.83,1.94,2.13.58,6-1.37,7.51l0,0c-3.63,2.89-10.24,2.57-14.64,2.6-5.19,0-10.63-.58-15.27-3.06-1.7-.91-3.06-1.89-3.48-3.88-1-4.8,3.06-7.06,7-8.52A27.1,27.1,0,0,1,413.73,197.75Zm82.78.48a36.19,36.19,0,0,1,10.19,1.08c3.38.82,8.7,2.46,9.08,6.66.53,5.83-5.6,8.8-10.44,9.55-5.93.92-13,.79-18.78-1-4.49-1.43-9.05-6.13-5.19-10.65,2.24-2.63,6.12-3.94,9.35-4.77A28.61,28.61,0,0,1,496.51,198.23Z"/><path id="pupils" d="M497.63,198.22c9.52-1.36,14.8,11.21,6.49,16.38-3.59,1.76-8.69,1.92-11.67-1.09-3.54-3.42-3.36-10.28.52-13.31A9.57,9.57,0,0,1,497.63,198.22Zm-78.24-.67c11.11-1.06,13.15,14.84,2.3,16.67-5.51.46-9.36-2-10.18-7.21v0C410.66,202,414.69,198.08,419.39,197.55Zm-7.22,11.66Zm80.8-9h0Z"/></g></g><path id="face" d="M419.77,242.94c.69-.6,1.42-1.18,2.13-1.76,2-1.61,4.15-3,6-4.74l-.08.07c7.64-6.23,14.37-14,18.11-23.23a20,20,0,0,0,1.05-6.42.69.69,0,0,1,.82-.38c.93.47.39,1.9.45,2.75-1.09,9.08-9.31,19.51-16.05,25.45-5.53,5-11.8,9.14-16.71,14.85-1.27,1.44-2.52,2.91-3.67,4.46a23.69,23.69,0,0,0-2.7,5l0-.1a13.94,13.94,0,0,0-.53,8.2l0-.09a10,10,0,0,0,5.08,5.9l-.09,0a14.4,14.4,0,0,0,5.61,1.53h-.05a31.72,31.72,0,0,0,16.55-3.63l0,0a84,84,0,0,0,8.22-4.63l-.09.05c4.28-2.57,7.39-6.51,10.89-10a14.85,14.85,0,0,0,1.51-1.56c.16-.18.35-.41.52-.58l0,0c1.93-2.26,3.78-4.59,5.52-7l0-.05,0,0a64.58,64.58,0,0,0,4.95-8.21s0,0,0,0a68.2,68.2,0,0,0,4.72-12.1.76.76,0,0,1,.85-.53c1.62.45-.51,4.35-.74,5.51a70.41,70.41,0,0,1-8.16,15.71l.06-.08c-2,2.44-3.77,5.14-5.78,7.58-.88,1.07-2,2-3,3s-2,2.16-3.05,3.23a38.3,38.3,0,0,1-6.66,5.8c-8,5.26-17.38,10.08-27.27,8.87-8.27-.76-13.39-8.1-10.92-16.1,1.6-5.45,5.52-9.76,9.45-13.68.84-.84,1.59-1.75,2.46-2.56Zm78.82-26.19c-1.35,0-2.69-.17-4-.29h.05c-6.14-.36-17.53-2.19-15.15-10.73h0l.06-.14h0v0h0l0-.08v0c1.72-4.17,6.4-5.56,10.33-6.79a25.75,25.75,0,0,1,11.88-1.05c5.19.8,15.65,2.66,14.86,9.63v-.11c-.31,5.42-5.82,8.14-10.59,8.85h0l-.1,0h0l-.18,0h0l-.09,0h0a37.43,37.43,0,0,1-7.08.62Zm-78.51-1.6c-5.5-.34-11.81.22-16.52-3.09-4.89-3.35-5.13-8.46,0-11.73l0,0,.15-.11-.09.07c10.07-5.73,24.64-4.55,32.84,3.92,3.2,5.14-1.59,9.69-6.66,10.37h0a46.28,46.28,0,0,1-9.7.55Zm62.51-11.44h0c-7.5,9,7.9,11.2,14,11.4h-.08l.21,0h0l.3,0h-.1a27.7,27.7,0,0,0,3.53,0h-.1a34.24,34.24,0,0,0,8.35-1.39l-.1,0a13.85,13.85,0,0,0,1.55-.61h0l.3-.15h0l.05,0,0,0a8.49,8.49,0,0,0,3.69-3.25h0l0-.06h0a7.66,7.66,0,0,0,.78-2.68v0c.61-5.51-9.34-7.2-13.43-7.84h0c-1.71-.13-3.44-.26-5.15-.24h0a39.06,39.06,0,0,0-8.61,1.88l.09,0a17.75,17.75,0,0,0-4.33,2.06l.07-.05a10.25,10.25,0,0,0-.85.62h0l-.15.13h0l0,0s-.05,0-.07.06Zm-56.56-4a27,27,0,0,0-2.94-.76s0,0,0,0c-1.58-.28-3.18-.34-4.77-.49h.11a24.68,24.68,0,0,0-10.14,1.42l.11,0c-5.16,1.49-10.22,6.17-4.32,10.54a.27.27,0,0,1-.08-.07c3.11,2.75,7.52,2.56,11.41,3h-.11c3.25.09,6.51.3,9.77.11H425a39.26,39.26,0,0,0,4.46-.5h0l.38-.07h0l.07,0h0c.39-.09.77-.2,1.14-.32h0c3.26-.76,6.22-4.2,4.07-7.44a0,0,0,0,1,0,0c-2.34-2.65-5.86-4.15-9.08-5.48Z"/></g><g id="figure"><g id="figure-behind"><path class="cls-9" d="M711.4,424.39c3.61-8.14,11.2-10.75,14.42-.73,3.51-8.81,13.41-11.49,15.58-.29,5.05-8.51,15-10.25,15,2.06,9.29-7.64,15.53-1.12,12.89,10.5,9.4-5.36,19.82.25,13.54,11.28,1.57-.33,4.24-.79,5.78-.16,1.37.56,2.64.74,3.7,1.8A10.78,10.78,0,0,1,795,454c.45,3.05-1.48,6.15-3,8.66.16-.26,1.93-.16,2.24-.15a11.47,11.47,0,0,1,2.48.25c4,1,6.92,4.67,5,8.66a10.82,10.82,0,0,1-5.24,5.14,15.44,15.44,0,0,1,7.58,3.93c1.67,1.57,3.69,4.45,2,6.62a14.22,14.22,0,0,1-6.56,4.4c.24-.08,1.41.78,1.66.92l1.43.81c2.6,1.49,4.71,4.12,4.31,7.25a7.57,7.57,0,0,1-3.28,5.27c-2.1,1.42-4.85,1.42-7.29,1.32-18.5-.73-81.2-20.38-107.42-33.12-15.41-7.48-35.62-23.26-32.63-28.8a9,9,0,0,1,5-4.64c1-.32,7.53-.36,7.46,1.35.37-9.4,8.17-14.27,15-6.36,1.64-7.48,5.84-13.95,13.1-6.89a16,16,0,0,1,1.13-3,1.3,1.3,0,0,0,.42-.18c.79-3.95,5.52-6.93,9-4.07C708.93,422,709.75,424.41,711.4,424.39Z"/><path class="cls-10" d="M627.7,452.4a26.81,26.81,0,0,1-4.69-.27c-3.61-.56-8-3.08-9.9-6.28s.08-5.51.11-8.71c0-3-1.46-5.76-2.1-8.63-1.66-5.1,2.64-5,4.66-1.16a42.74,42.74,0,0,1,2.92,6.38l.24-.11c-4.42-11.31-1.42-18.55,5.42-3.61a55,55,0,0,1,1.81,6,1.06,1.06,0,0,1,.34-.12l0,0c-3.56-16.25,2.57-19.71,6.22-1.69-.31-4,1-17.69,5.12-6.65.79,2.1,1.36,4.34,2,6.49.6,2,1.43,4.16,1.12,6.22a19.66,19.66,0,0,1-3.69,8.82C635.1,451.94,631.1,452.29,627.7,452.4Z"/><path d="M726.11,421.76l.14-.21v0l.25-.38a.56.56,0,0,0,0,.08c4-6.51,13.07-9.2,14.89.39,5-7.74,14.84-8.51,15.41,2.4,9.87-6.73,15.53.5,13.3,10.64,9.37-4.63,19.59.85,14.18,11.67,9.12-2,14.93,8.18,9.2,15.31,9.81-.24,14.38,9.69,4.77,14.82,8.55,2.13,13.51,11.09,3.23,15.18,7.6,2.47,8.9,12.31,1,15.44h0a21.58,21.58,0,0,1-3.5,1.2.8.8,0,0,1-.54-1.51,21,21,0,0,0,4-1.46h0a8.81,8.81,0,0,0,2.46-1.87h0c1.75-1.79,1.55-4.55.56-6.67v0l0-.09,0,.07c-1.22-2.37-3.83-3.45-6.23-4.21-1.27-.55-.69-1.69.44-1.93,2.59-1,6.19-2.63,6-5.93v.1a5.69,5.69,0,0,0-1.69-3.3l.07.07c-2-2.52-5.37-3.19-8.22-4.23-1-1.71,2.33-2.28,3.18-3.31l-.07.07a22.69,22.69,0,0,0,1.94-1.86l0,.06a4.94,4.94,0,0,0,1.08-4.19s0,0,0,0l0-.1,0,0c-1.16-3.43-5.22-5.12-8.64-4.83h0a10.58,10.58,0,0,1-2.08.22.85.85,0,0,1-.33-1.42v0a10.28,10.28,0,0,0,1.58-1.78v0l.06-.09,0,.07c2.44-3.23,2.32-8.18-.9-10.84v0a7.8,7.8,0,0,0-3.61-1.68l.08,0-.11,0h0a7.93,7.93,0,0,0-2.23-.05h.07c-1.18-.15-3.3,1.33-3.94-.09-.14-.52.3-.92.57-1.31a12.14,12.14,0,0,0,1.16-2.34l0,.08a8.31,8.31,0,0,0-.17-6.56l0,0-.05-.1,0,.05a2.45,2.45,0,0,0-.31-.41l.07.07c-3.41-4.11-9.47-2.48-13.71-.67-.4.18-.91.43-1.24,0a.77.77,0,0,1-.14-.64,13.51,13.51,0,0,0,.9-4.11s0,.07,0,.11c.44-7.86-3.37-11.17-10.57-7.07l.06,0a21.27,21.27,0,0,0-2.41,1.27h0l-.09,0h0c-.1,0-.22-.08-.34-.1h0l-.08-.05h0l-.09-.08h0v0h0a.61.61,0,0,1-.07-.1l0-.1h0a.25.25,0,0,1,0-.17,16.79,16.79,0,0,0-1.21-5.74h0a4.09,4.09,0,0,0-3.54-2.28h.08a7.15,7.15,0,0,0-3.65.8l0,0a9.62,9.62,0,0,0-1.84,1.34h0a17.9,17.9,0,0,0-1.46,1.43.23.23,0,0,0,.07-.07c-.88,1-1.67,2.08-2.57,3.06l0,0a.72.72,0,0,1-.23.2h0l-.09,0a1.15,1.15,0,0,0-.26,0h-.21l-.13-.08a32.58,32.58,0,0,0-1.48-4.81.41.41,0,0,0,0,.09c-2.93-5.63-9.61-.43-11.75,3.32l.05-.08c-.19.28-.37.56-.54.85v0a1.42,1.42,0,0,1-.41.4h0a1.66,1.66,0,0,1-.53.18.37.37,0,0,1-.18,0h0l-.12,0h0l-.11-.05h0a2.43,2.43,0,0,1-.52-1v0c-.2-.57-.41-1.12-.65-1.67v0l0,0h0l-.24-.46a.41.41,0,0,1,0,.09,4.4,4.4,0,0,0-.3-.52l.06.08c-.95-1.5-2.82-2.88-4.66-2.31l.1,0a8.76,8.76,0,0,0-3.12,1.18l.08-.06a9.42,9.42,0,0,0-.86.67l0,0c-1.69,1.41-2.48,3.54-3.83,5.18h0c-.15.07-.34-.05-.49-.08h0a4.35,4.35,0,0,1-.61-.45h0c-2.86-3.12-6.25-5.33-9.82-1.68l0,0a.34.34,0,0,0-.06.06l0,0a8.93,8.93,0,0,0-2.21,5.62.9.9,0,0,1-.38.88c-1.15.94-2.19-1.26-3.06-1.82l.07.06a5.39,5.39,0,0,0-1.87-1.08h0a5,5,0,0,0-2.16-.32h.1l-.25,0h0a4.07,4.07,0,0,0-2.63,1h0a3.85,3.85,0,0,0-.35.35l0,0a13.22,13.22,0,0,0-2.09,3.94.14.14,0,0,1,0-.06,15.59,15.59,0,0,0-.45,5.05c0,.11,0,.39-.11.48l-.23.11h0a.86.86,0,0,1-.24,0h0l-.29,0h-.06l-.22-.13h0a21.17,21.17,0,0,1-1.84-1.57l0,0-.25-.22.08.07a11.94,11.94,0,0,0-5.16-2.9h0a4.27,4.27,0,0,0-3.8.95l.07-.06a7.71,7.71,0,0,0-1.21,1.4.35.35,0,0,0,0-.08,13.73,13.73,0,0,0-2.52,6c-.11.93.07,3.18-1.5,2.28h0l-.14-.12,0,0c-1.31-1.11-2.86-2.33-4.68-2.2h0a7,7,0,0,0-1.93.3,7.34,7.34,0,0,0-2.7,1.79.69.69,0,0,1-1-.71c.22-.8,1-1.27,1.66-1.74a7.16,7.16,0,0,1,8.55.55c1.73-9.75,8.21-13.51,15.94-6.05a11.33,11.33,0,0,1,.64-4s0,.06,0,.08c1.75-6.12,7.9-8.17,12.36-3.33,1.15-7.69,8.94-10.95,14.14-4.44,2.69-5.75,10.68-9.78,14.4-2.72a1,1,0,0,0,0-.1l.27.55v0a10.28,10.28,0,0,1,.42,1Zm-41.29,15.45Zm-.59-.17h0Zm71.58-11Zm-.29-.09Z"/><path d="M616.46,436.92a24.59,24.59,0,0,1,10.7,5.89c.72.71,1.81,1.27,2,2.35a.74.74,0,1,1-1.44.3c-.65-.63-1.3-1.26-2-1.86l.07.06a19,19,0,0,0-6.36-4.08c-1.12-.38-2.16-.93-3.25-1.35a.68.68,0,0,1,.29-1.31Zm-3.83-11.85-.17,0h.07c-.45-.16-.81.2-1,.59l0-.05a6.21,6.21,0,0,0-.12,2v-.1c.26,2.82,1.4,5.47,2.16,8.18.46,1.52.79,3.42-.39,4.7a.66.66,0,0,1-.62.89,1.72,1.72,0,0,1-.83-.36c-.66-.68.17-1.34.56-1.89a3.48,3.48,0,0,0,.07-2c-.81-3.53-2.55-6.93-2.45-10.62-.17-1.85,1.63-3.6,3.43-2.66a9,9,0,0,1,2.87,2.6c-.55-2.68-.13-6.76,3.61-5.08,2.45,1.91,3.54,5.08,4.76,7.84-.38-2.39-.58-8.27,3.07-7.78,2.88,1.45,3.49,5.2,4.48,8-.06-2.28.24-8.52,3.86-6.74,1.75,1.18,2.2,3.47,2.88,5.34,1,3.52,1.88,7.06,2.66,10.61a.8.8,0,0,1-1.56.32c-.76-3.53-1.68-7-2.63-10.53-.63-1.52-.87-3.68-2.45-4.51h-.05a6.62,6.62,0,0,0-1.13,3.44h0a60.77,60.77,0,0,0,.14,6.61v-.1c0,.52.07,1,.1,1.54v0a35.8,35.8,0,0,0,.44,3.87.66.66,0,0,1-.36.59h0a.69.69,0,0,1-1-.36c-.5-.23-.45-.85-.57-1.3a.36.36,0,0,1,0,.1L632.3,437s0,.07,0,.1a1.16,1.16,0,0,0,0-.18.36.36,0,0,1,0,.1l-.06-.29a.44.44,0,0,1,0,.1,1.91,1.91,0,0,0,0-.21.43.43,0,0,1,0,.11c-.86-4.42-1.61-9.06-4-13l.06.08c-.32-.38-.76-1.15-1.31-1.06l0,0,0,0h0l0,0h0a4.9,4.9,0,0,0-1.09,3.17v0h0a12.51,12.51,0,0,0,0,1.5v-.1c.23,3.18,1.13,6.26,1.49,9.42a.68.68,0,0,1-.95.74.79.79,0,0,1-.84-.45h0c-.58-1.9-1-3.85-1.76-5.72l0,.1c-1.32-3.11-2.32-6.89-5-9.06l0,0c-1.44-.54-1.39,1.24-1.32,2.19,0,0,0-.07,0-.1.27,3.49,1.51,6.82,2.45,10.17a.78.78,0,0,1-1.5.42h0c-.18-.42-.36-.83-.5-1.26l0,.09c-.25-.7-.46-1.41-.71-2.11l0,.09c-1-2.59-2.22-5.48-4.72-6.9h0l-.08,0Z"/></g><g id="grid"><g id="pixels"><path id="p1" class="cls-11" d="M402.75,78.78,297.09,58.9,277.21,164.57l105.66,19.88Z"/><path id="p2" class="cls-11" d="M508.42,98.66,402.75,78.78,382.87,184.45l105.67,19.88L508.42,98.66Z"/><path id="p3" class="cls-11" d="M614.09,118.54,508.42,98.66,488.54,204.33l105.67,19.88,19.88-105.67Z"/><path id="p4" class="cls-11" d="M719.75,138.42,614.08,118.54,594.2,224.21l105.67,19.88,19.88-105.67Z"/><path id="p5" class="cls-11" d="M825.42,158.3,719.75,138.42,699.87,244.09,805.54,264Z"/><path id="p6" class="cls-11" d="M382.87,184.45,277.21,164.57,257.33,270.23,363,290.11Z"/><path id="p7" class="cls-11" d="M488.54,204.33,382.87,184.45,363,290.11,468.66,310l19.88-105.66Z"/><path id="p8" class="cls-11" d="M594.21,224.21,488.54,204.33,468.66,310l105.67,19.88,19.88-105.66Z"/><path id="p9" class="cls-11" d="M699.87,244.09,594.2,224.21,574.32,329.87,680,349.75Z"/><path id="p10" class="cls-11" d="M805.54,264,699.87,244.09,680,349.75l105.67,19.88Z"/><path id="p11" class="cls-11" d="M363,290.11,257.33,270.23,237.45,375.9l105.67,19.88L363,290.11Z"/><path id="p12" class="cls-11" d="M468.66,310,363,290.11,343.12,395.78l105.66,19.88L468.66,310Z"/><path id="p13" class="cls-11" d="M574.33,329.87,468.66,310,448.78,415.66l105.67,19.88,19.88-105.67Z"/><path id="p14" class="cls-11" d="M680,349.75,574.33,329.87,554.45,435.54l105.66,19.88L680,349.75Z"/><path id="p15" class="cls-11" d="M785.66,369.63,680,349.75,660.11,455.42,765.78,475.3l19.88-105.67Z"/></g></g><g id="figure-front"><path id="shadow-2" data-name="shadow" d="M661.83,703.83c-9.9-3.83,13.67-13.54,17.24-14,11.88-2.36,24.35-2,36.37-2.67,13.53-.22,28.48-.53,41.42,2.37,2.32.27,4.37,2.58,2.72,4.79-1.32,1.57-3.63,2.08-5.52,2.46-10,1.67-20.14,1.39-30.23,2.23C703.06,700.1,682.53,703.26,661.83,703.83Zm223.11-20.26c-7.75-.39-16.17,1-23.49-1.86-2.76-5.88,8.16-11.43,12.82-12.77,17.38-3.73,35.61-1.66,53.24-1,8.81.88,18.54.48,26.49,4.78,4.79,5-4.23,6.85-7.78,7.35C926.08,683.83,905.38,683.05,884.94,683.57Zm-151.63-15.9c-4,.22-7.29-.72-6.49-5.46,1.65-2.23,4.53-3.33,7.13-4.11,10.68-2.48,21.71-.42,32.52-.29a58.28,58.28,0,0,1,10.94.85l-.09,0a20.09,20.09,0,0,1,3,.7h-.09c13,5.69-20.4,6.78-23.23,6.81C749.1,667,741.26,667.44,733.31,667.67Z"/><path class="cls-12" d="M733.2,667c-4.78-.32-11.72,1.2-15.2-2.64-.76-1.79.91-3,2.54-3,9-1.27,9.14-12.22,10.2-19.36-1.54-3-6-3.93-8.59-6.16-8-4.87-21.33-13.42-25-22.12-1.63-6.52-3.1-13.37-5.84-19.61,11.92,7.47,25.26,13.22,39.42,13.5,14,14.75,18.48,35.49,24,54.5C752.6,666.85,738.29,666.13,733.2,667Z"/><path class="cls-9" d="M794.84,523.12c-.07.17-.09.44-.28.46a8,8,0,0,1-4.82,5.06,20.22,20.22,0,0,1-1.93.81c.7,2.47,1.65,5.1.94,7.67a16.36,16.36,0,0,1-6.85,7.42A46.82,46.82,0,0,1,765,551.82c-12.29,1.68-24.42,5.77-36.59,8.37a237.45,237.45,0,0,0-37.88,10.74c-7.71,3.13-15.67,6.56-22.36,11.53a34.11,34.11,0,0,0-4.79,5.24c-4.18,7.84-14.58,8.08-17-2-6.38,9.09-13.37-2-13.54-8.38,0,0-.06.09,0,.09.22.11-2.3,2.12-2.57,2.25a3.73,3.73,0,0,1-3.27.14,17.33,17.33,0,0,1-2.44-2,9.19,9.19,0,0,1-2.3-3.09c-.94-2.14-.26-5-.29-7.31-3.72,2.31-7.92,3.2-11.4,2.14-2.91-.88-3.5-3.8-3.7-6.51a19,19,0,0,1,.37-5.1c.13-.69.77-2.59,1.24-4.4-10.38,2.31-14.51-6-4.91-13.41-3.36-10.89-7.45-22.11-7.65-33.5a70.59,70.59,0,0,1,5.91-30,83,83,0,0,1,5.37-9.4c3-5.06,7.82-8.59,12.88-11.44,5.78-3.26,11-5.63,17.82-5.3,5.67.28,10.92,2,16.44,3,3.48.68,7.11,1.06,10.62,1.61,8.43,1.32,17.18,3.4,25.57,5,6,1.13,12,2.09,18,3.3,2.75.55,5.69,1.69,8.47,1.85a42.43,42.43,0,0,1,8,1.54l19.5,5a102.8,102.8,0,0,1,10.75,3.19c3.29,1.25,7.32,2.92,9.79,5.52a45.6,45.6,0,0,1,3.62,5.14l4.29,6.15q9,12.84,18,25.69l2.87,4.11C793.85,521.7,794.91,522.94,794.84,523.12Z"/><path class="cls-12" d="M768.14,466.88c.57-2.45,1-4.92,1.38-7.41,2.33,3.54,4.63,7.11,7,10.61l-.18-.26c.31.46.62.93.94,1.39l0,0,1,1.41-.1-.15,2.07,3.05-.18-.27c1.29,1.91,2.63,3.78,3.91,5.68l0-.06.46.68s0,0,0,0l.14.22c.1.13.19.27.27.39l0,0c.19.28.36.55.56.83l0,.06s0,0,0,0c.11.17.22.33.31.48,4.33,6.5,8.62,13,13.09,19.42a2.75,2.75,0,0,0-.19-.28c.58.85,1.16,1.69,1.72,2.54l.13.18c11.54,17.22,24.28,33.62,36,50.69a62,62,0,0,1,25.74-6.19c38.64-1.54,68.83,27.14,70.17,62.32,0,2.59,0,5.18,0,7.81-.2,2.47-.35,4.94-.79,7.38-.35,1.92-1.18,3.58-1.53,5.46-.82,4.47-3.28,8.36-5.41,12.31s-3.34,8.28-6,11.72a65.58,65.58,0,0,1-24,19.55,67.16,67.16,0,0,1-28.58,6.35,65,65,0,0,1-27.4-6.08,62,62,0,0,1-23-17A73.82,73.82,0,0,1,806.44,646a60.13,60.13,0,0,1-3.17-7c-.78-2.32-2.13-5.39-2.13-7.84a93.33,93.33,0,0,1-1.3-10.8.13.13,0,0,0,0,.06,2.29,2.29,0,0,1,0-.25s0-.05,0-.05c-1-19.6,5.47-36.44,20.14-52.46-4.92-7.75-10.48-15.82-15.86-23.2-4.8-7.21-9.75-15.52-15.6-23.54-11.74-16.06-21.79-33.39-33.55-49.61.79.14,1.58.25,2.37.34,2.9.36,5.69,1,8.62,1.14a1.22,1.22,0,0,0,.6,0,1.2,1.2,0,0,0,.53-1.1,17.62,17.62,0,0,1,.63-2.1s.18-2.38.35-2.15l0,0a1.7,1.7,0,0,1,.06-.31C768.11,467,768.12,467,768.14,466.88Zm4.06,8.72a2.29,2.29,0,0,1-.23.21l.3.58a3.53,3.53,0,0,1,.46,0l-.53-.78Z"/><path class="cls-10" d="M767.44,541.1A19.79,19.79,0,0,1,779.07,546c2.27,2.45,4.89,4.81,6.21,7.94,2.29,5.19,2.9,10.4,2.88,16,0,2.7.36,5.16-.17,7.86-2,9.23-9.28,16.49-16.71,21.82-18.73,12.88-43.48,11-63.69,2.8,0-.25-3.83-1.53-4.19-1.68-3.32-1.53-7-2.51-9.56-4.62,11.8,20.19-17.52,36.45-31.73,21-4-4.93-4-11.56-5.72-17.33-.88-2.89-1.81-5.76-2.61-8.67-.72-2.63-1.83-5.14-1.6-7.9.37-3.72,2.19-7.24,4.26-10.28,1.56-2.1,3.5-3.42,6.3-5.24,2.18-1.41,5.09-2.16,7.49-3.08Q690.14,557,710.58,551c8.19-2.42,16.45-4.64,24.8-6.46C745.89,542.33,756.66,540.2,767.44,541.1Zm-57.32,62.19-.09,0,.12,0h0Zm-52.8-.66Zm-2.48-9h0Z"/><path class="cls-10" d="M633.08,448.73l.69,1c1.78-4.44,2.36-9.79,5.25-13.59,4.11-1.75,3.84,5.12,4,7.65-.64,19.86-8.56,14.95-23.7,15.34-.28,0-.66,4.83-.75,5.23-.43,2-1.19,3.86-1.74,5.81-2.06,10.81-4.38,21.66-6.07,32.51a15.85,15.85,0,0,1,7.58,2.28c1.76-17,21.31-24.79,36.33-25.92,7.19-1.48,17.94,2.18,23.39-3,.81-.59,2-2.11,3-2.35,3.16.23,4.49-3,7.21-4.24l-.22.15.22-.15-.19.13.19-.13-.17.12c5.77-5.13,14-2.56,19,2.38,6.5-8.38,23.42-14.9,31.69-5.95l-.07-.07c1.36,1.47,3.06,2.61,4.14,4.32l-.05-.08a5.78,5.78,0,0,1,1.19,2.68c.14.25.27.51.4.78,8.93-5,21.32,1,19.54,11.94,0-.14.06-.29.08-.42-2.43,17.78-16,34.45-34.84,24.07-8.2,23.88-37.92,23-58.55,27.67-11.79,1.72-22.84,6.86-34.8,7.52-16.33.31-33.23-.71-48.62-6.3l.1,0-.17-.06.07,0-.1,0h0c-4-1.62-9.45-2.63-12.25-6,1-7.86,2.45-15.6,3.55-23.43,3.22-14.38,11.78-26.85,17.83-40.07,1.1-4,3-7.88,3.25-12.1,2-4.43,3-9.11,4.5-13.75.61-3.6,5.07-6,7.83-3.07,1.79,1.75,2.81,4.37,4.11,6.39,3.29-1.89,7.19-1.95,10.92-2.12C629.84,444.14,631.54,446.44,633.08,448.73Zm-46,89.36ZM687.7,469.84h0Zm0,0h0Zm-89.6-9h0Z"/><path class="cls-12" d="M658.24,703.74a41,41,0,0,1-7-.9c-1-1-1.3-2.38-2.25-3.43a2,2,0,0,0,0-.61c2.6-3.73,6.55-5.56,9.82-8.69,3-2.6,5.24-5.37,7.92-8.12.59-.7,1.25-1.35,1.87-2a31.15,31.15,0,0,0,5-6.24c1-1.78.32-3.4,0-5.22a35.64,35.64,0,0,0-1.46-5.23c-1.24-3.48-2.82-6.88-4-10.33-.37-1.05-.67-2.13-1-3.19-1.6-5.6-3.61-11.07-5.16-16.67-2.39-8.61-4.77-17.24-7.77-25.67,3.56-.31,7.22-.38,10.79-.42,11.11,0,22.74-.38,34.17.63a16.87,16.87,0,0,1-.09,2.79,2,2,0,0,1,.39.13c0,2.28.07,4.89.09,8.19a.93.93,0,0,1-.41.07c-.09,10.74-.4,24.6-.18,34.54.18,3.56.92,7.15.78,10.71-.14,3.06-.33,6.28-.24,9.35.13,2.59.38,5.16.71,7.73.23,1.72.3,3.46.4,5.2,0,.84.11,1.69.17,2.54,0,.35.26,2.09,0,2.27a37.67,37.67,0,0,1-4.93,3c-1.59.82-3.35,1.36-4.89,2.22a28.24,28.24,0,0,1-5.1,1.86c-1.79.6-3.59,1.18-5.41,1.69-5.62,1.63-11.24,3.79-17.14,3.68C661.75,703.68,659.8,703.76,658.24,703.74Zm2.82-135.57c-8.93-5.41-10.35-16.59-11.94-26-.67-3.18-.38-6.53-3.08-8.72a14.27,14.27,0,0,1-1-1c-2.1-2.2-4.15-4.5-6.09-6.85.42-5.39,1.34-10.76,1.88-16.13,2.62,4.57,4.86,7.82,9,10.67,4.88,2.88,12,3.67,16.43-.21,7.74-7.31,10.38-18.72,10.17-29.1.54-.51,1.13-1,1.68-1.51,1.66,7.09,4.47,13.76,9.36,19.35,2.39,2.77,4.94,6,7.58,8.56a12.63,12.63,0,0,0,5,3.76c2.08.73,4.25,1.72,6.43,1.76a30.8,30.8,0,0,0,8.54-1,8.2,8.2,0,0,0,3.71-2.82c4-2.79,8-6.8,8-12.05a.74.74,0,0,1,.41-.86c1-1.07,4.5,3,6,3.06a36.06,36.06,0,0,0,14.16,2.09c.61,5,.78,11-.67,16.11l.12-.06a53.52,53.52,0,0,1,16,4.11l-.15.06c4,1.07,7.48,3.56,11.21,5.22,5,3.73,7.32,10.79,10.45,16-1-.15-1.89-.65-2.86-.89.53-1.14-.71-1.56-1.69-1.28a1.37,1.37,0,0,0-.94-.87c-.06,0-.14,0-.13-.05a.43.43,0,0,1-.25,0c-.7-.32-1.28-.05-2,.07a37,37,0,0,0-5.23,1.34v-.11l0,.12a7.33,7.33,0,0,1-1.73.51,30.47,30.47,0,0,0-11.07,4.33c-14.74-10.58-26-8.08-42.25-4.1-2.74,9-6.64,15.33-15.35,16.35-5.82-1-10.49-4.52-14.71-8.41-3.05,1.51-6.5,1.63-9.58,3.05-2.86,1.53-6.06,2-9,3.35C665.25,566.44,663.28,568.41,661.06,568.17Z"/><path class="cls-9" d="M647.6,482.61c.47,6.27-9.05,15.27-11.6,5.59-1.37,3.06-2.73,6.41-5.59,8.35-2.13,1.06-4.95,1.5-6.75-.43-1.66-1-1.06-4.57-2.26-4.86-3.71.81-7.88,2.5-11.41.28-6.82-5,.5-14.37,7-15.37-8.27-3.08-6.14-10.43,1.4-12.54.89-5.49-.35-4.71,5.41-4.34a109.47,109.47,0,0,0,15-.47c2.9-4,4-8.86,4.28-13.71.78-1.82,3.33-2.55,4.71-4,3.86-4.19,11.15-2,11.13,4,.15,3.82-.12,3,3,1.67,5.57-2.22,8.89,3.62,8.17,8.52.05-.37,1-1,1.23-1.22,4.5-3.38,10.06-1.22,10.41,4.55,8.94,1.31,17.73,3.42,26.62,5,9.72,1.22,6.42,1,.85,6.65-.18.17-2.11,1.9-2,1.95-1.72-1.33-3.1-3.12-4.82-4.41-6.8-4.09-15.19.35-19.63,5.86-3.52-.54-5.32,4-8.26,5.1a1,1,0,0,0-.69.81c-.71,6.42-10,7.27-11.69,1.06C661.14,489.73,650.52,491.72,647.6,482.61Z"/><path class="cls-10" d="M749.47,469.83a36.2,36.2,0,0,1,23.46,1.93,11.52,11.52,0,0,1,3.18,1.52c.76.72,1,2.52,1.19,3.52.76,4.06,2.24,7.93,3,12a101.65,101.65,0,0,1,1.49,12.66c.5,7.8.42,15.61.87,23.4.18,1.34.39,2.66.64,4l0-.16a45.63,45.63,0,0,0,2.2,8.41L786,537l-.09,0a12,12,0,0,1,2.43-.61l-.09,0a10.84,10.84,0,0,1,2.2-.34h-.1a13.45,13.45,0,0,1,7.24,1.27c0-.23.06-.46.08-.7v.1c0-.54,0-1.08.06-1.62v.09c.05-.8.06-1.66.12-2.43l0-.41a.28.28,0,0,1,0,.09c0-.35,0-.72,0-1.05a20.17,20.17,0,0,1,.84-4.2.29.29,0,0,1,0,.09l.08-.24,0,0a6.08,6.08,0,0,1,1.86-2.88l-.06.06.08-.07,0,0c.87-1.12,3-1.35,2.82.51v0a2.29,2.29,0,0,1,0,.25,67.17,67.17,0,0,1,0,7.9v-.1l0,.28v.14a1.79,1.79,0,0,0,0,.23v-.1c-.11,1.69-.24,3.38-.25,5.07.29-2.49,7.31-14.93,9.13-9.13v-.1a14.2,14.2,0,0,1-1.14,4.69v0c-1,3-1.71,6.06-2.63,9.07l.25-.38,0,0c.78-1,1.61-2.07,2.32-3.18l0,0c1.61-2,3.93-4.83,6.77-4.19,2.56.78-3.83,9.79-4.27,12.12,2-1.84,4-4,6.66-4.68l-.08,0,.4-.15-.09,0c3.08-1.31,3.92,1.1,1.85,3.21l0-.07a53.19,53.19,0,0,1-4.37,5.65l0,0-.13.15.06-.07a10.2,10.2,0,0,1-10.34,3.87h0a80.53,80.53,0,0,1-14.47-.77h0c-9.46.38-17.88-5.27-22.65-13.22l.05.07c-2.43-3.9-4.7-7.92-6.81-12v0c-.44-.76-.73-1.58-1.1-2.37l0,.08c-.3-.56-.56-1.13-.82-1.71a.08.08,0,0,1,0,0s0-.08,0-.07a49.77,49.77,0,0,0-3-5.78l0,0a.25.25,0,0,0,0-.07l0,0a92.86,92.86,0,0,1-5.65-12.82.58.58,0,0,0,0,.14c-.1-.29-.24-.68-.34-1,0,.13.09.26.13.4-.13-.39-.27-.78-.4-1.16.05.13.09.26.14.4-2.44-6.81-4.08-13.85-7.08-20.47C742,478.29,739.41,471.58,749.47,469.83Zm21.26,71.74v0l0,0a.18.18,0,0,1,0-.07Zm11.92-16.82Zm0,0Z"/><path class="cls-13" d="M671.75,702a3,3,0,0,0-.13.84l-1.69.21Zm241.58-84a22,22,0,0,1,5.83.59l-.1,0c4.67,1.09,10.2,3.26,11.2,8.58a.56.56,0,0,1,0-.12c0,.15.09.31.14.46,0,0,0,0,0-.05,2.25,5.76-2.72,11-5.11,16.65-3,7.21-6.08,13.2-12,19.16-10,9-21,15.67-34.1,19.31a107.28,107.28,0,0,1-21.27.14c-18.73-16.69-.23-44,17.35-53.52,8.19-4.68,17.6-6.86,26.48-9.8h.06C905.63,618.9,909.47,618.29,913.33,618Zm-181.89,48.8c-4.41.15-9.31-.06-13.31-2a2,2,0,0,1,.84-3.2c2.07-.46,4.23-.73,6.1-1.82,4.4-3.31,4.79-13.42,5.56-18.62a152.78,152.78,0,0,1-30.74-23.3,18.16,18.16,0,0,0,.15-2.44q-.19-3.72-.37-7.43c-1.21-.12-2.41-.27-3.6-.47A32.68,32.68,0,0,0,694.62,597c8.64,2.84,16.59,7.93,25.81,9,3.91,1,7.75,2.31,11.72,2.76,1.39,1.68,2.5,3.61,4,5.21,5.61,7.12,8.28,15.95,11.25,24.38,3,7.91,5.35,16,7.8,24.11-.23.78-1.65,1-2.35,1.4a16.38,16.38,0,0,1-5.36,1.65C742.17,666,736.81,666.67,731.44,666.79Zm7.92-7.19-.06.28a.43.43,0,0,1,.21-.06,3.31,3.31,0,0,0-.11-.42l0,.2Zm-29.09-92.25a6.58,6.58,0,0,1-5.07-.41c.4-1.11,2-.87,2.75-1.74,8-6.58,9.46-18.3,10.33-28.05-.31-3.8.67-.59,1.3.85a51.28,51.28,0,0,1,3.27,12.49,19.32,19.32,0,0,0-3,.55C719.78,557.59,716.29,564.52,710.27,567.35Zm0,0h0Zm-39.84-4.88c1.08-3,2.3-5.87,3.23-8.89h0c0-.05,0-.1,0-.15h0c.3-1.15.55-2.32.8-3.48.59,1.17,1.32,2.26,1.91,3.42h0c.78,1.54,1.43,3.14,2.07,4.73a.36.36,0,0,0,0-.09c.39,1,.72,2,1.1,3-3.51,1.15-6.92,2.6-10.29,4.07C669.68,564.24,670.07,563.36,670.43,562.47ZM782.1,511.4c3.11,4.7,6.62,9.12,9.38,14,2.08,2.15-1.32,3.88-3.35,3.78.34,2,2.74,7.18-.43,7.27-3.06,1.19-2.13,1.61-3.2-1.7a52.79,52.79,0,0,1-1.62-9.35c-.55-4.79-1.41-9.88-1.08-14.45Zm2.48,23.8Zm-.35-1.25v0Zm-30.58-26.82c3.33,8.55,8,16.41,11.6,24.57,2.27,2.72-7.4-2.16-8.7-2.17-3.38-1.15-6.94-1.26-10.42-1.68.14-1.55.76-3.26.91-4.45.47-4.13,0-8.77,0-12.56A14.42,14.42,0,0,0,753.65,507.13Zm-136.58-2.32a11.58,11.58,0,0,0-6.15-1.82c-.66-3.7.4-7.61.83-11.32a20.1,20.1,0,0,0,3.8.09c.79,1.74,4.21-.21,5.72-.32h0a8.31,8.31,0,0,0,1,4.19c-.5.74-1.26,1.7-1.7,2.48-1.76,1.78-1.52,5.32-3.47,6.66Z"/><path class="cls-8" d="M652.05,504.42c.64-.25,1.28-.53,1.92-.77a24.33,24.33,0,0,1,9.49-1.43,9.77,9.77,0,0,1,3.46,1,3.65,3.65,0,0,1,1.85,2.36,4.46,4.46,0,0,1-.24,4,7,7,0,0,1-2.46,2.51c-1,.61-1.9,1.35-3,1.87a16.43,16.43,0,0,1-3.85,1.34c-1.23.25-2.37.78-3.59,1.12-.93.25-1.87.43-2.81.61l-3.09.6a4.34,4.34,0,0,0-1.18.29,4.5,4.5,0,0,1-.89.49,1.34,1.34,0,0,1-.4.06h-.11a1.34,1.34,0,0,1-.86-.59.6.6,0,0,1-.2-.27,8.23,8.23,0,0,1-.53-.78c-1.36-2.2-3-4.26-4.33-6.49a.64.64,0,0,1-.13-.37.55.55,0,0,1,.16-.3,9,9,0,0,1,3.47-2.48c1.27-.56,2.6-1.08,3.88-1.56.59-.21,1.18-.43,1.77-.63l1.26-.4,0,0A.74.74,0,0,1,652.05,504.42Zm12.79.86a.5.5,0,0,1,0,.12l.11-.11h-.13Z"/><g id="grid-outline"><path d="M767.12,469.72l-.57-.14,2.46-13q1.72-9.14,3.47-18.26,7.28-38.37,14.59-76.74,18.21-96,36.46-191.93l2.25-11.78c0-.52.35-.38.73-.3,1.75-.52-.44,5.56-.36,6.63Q806.1,269.56,786,374.89q-7.18,37.78-14.38,75.58-1.18,6.21-2.36,12.41c-.45,2.35-.91,4.69-1.36,7Z"/><path d="M236.13,375.64q29.48-155.11,59-310.23c.35-1.85.69-3.7,1.06-5.55.11-.56.2-1.13.31-1.69a14.23,14.23,0,0,0,1.45.27l-3.87,20.39q-19.17,100.92-38.42,201.83-7.66,40.2-15.31,80.42-1,5.42-2.07,10.85C237.64,373.44,238.39,376.82,236.13,375.64Z"/><path d="M296.58,58.13q264.34,49.61,528.68,99.2a10.74,10.74,0,0,0,1.22.26c.24,0,.5.08.74.15q0,.34-.06.69c.06.79-.44.59-1,.45l-7.38-1.38-16.52-3.11L412,81.17,342,68l-45.78-8.59A5.42,5.42,0,0,1,296.58,58.13Z"/><path d="M681.48,457.68c11.25,2.13,22.52,4.22,33.76,6.35a.67.67,0,0,1-.27,1.31q-15.51-2.89-31-5.82l-2.14-.4Z"/><path d="M236.45,374.46q178.6,33.51,357.22,67l9,1.68a.68.68,0,0,1,.6.84.68.68,0,0,1-.74.49c-3.21-.63-6.43-1.21-9.65-1.82Q467.2,419.17,341.6,395.57l-97.94-18.38-7.56-1.42A6.32,6.32,0,0,1,236.45,374.46Z"/></g><path d="M776.76,468.79c2.21,3.24,4.55,6.37,6.62,9.71l0,0q1.56,2.28,3.14,4.53c.1-.05.07,0,.12.07a14.87,14.87,0,0,0,.83,1.24h0c4.47,6.49,9,13,13.29,19.55a.22.22,0,0,1-.05-.08c.19.3.39.59.59.88l-.06-.08.53.78-.06-.08,5.06,7.32-.06-.08c1.06,1.57,2.1,3.15,3.15,4.71,0,0,0,0,0-.08l.56.84,0,0,.83,1.22-.06-.08c4.63,6.67,9.21,13.37,14.13,19.82,3.48,4.85,7.56,9.25,10.7,14.33a.56.56,0,0,0,0-.08,11.67,11.67,0,0,1,.93,1.5c2.83-1.22,5.63-2.66,8.66-3.31l-.1,0a85.85,85.85,0,0,1,37.31-.25l-.1,0,.5.1-.11,0A79.44,79.44,0,0,1,911.7,566l-.08-.07c10.86,9.58,17.75,23.49,20.45,37.63,0,0,0-.07,0-.1s0,.16.05.25,0-.07,0-.11a58,58,0,0,1,1,15.66v-.11a43.33,43.33,0,0,1-1.36,10.63s0-.06,0-.1a40.1,40.1,0,0,1-3,9.23l0-.09c-1.12,2.12-2.18,4.27-3.25,6.42a1,1,0,0,0,0-.1,115.92,115.92,0,0,1-6.25,12.58,55.59,55.59,0,0,1-7.48,7.86l.08-.07a74.19,74.19,0,0,1-11.06,8l0,0a75,75,0,0,1-13.59,7.09l0,0a31.36,31.36,0,0,1-8.68,2.19h.08l-.28,0h.11l-.23,0h.11c-2.29.23-4.6.33-6.91.38h.11l-.47,0h0l-2,.14h.11a60,60,0,0,1-7.92-.4h.1l-1.05-.08h.1c-19.15-1.08-40.36-12.34-50.11-29.16l.06.09c-9.11-12.53-10.73-22.58-11.35-37.63v.09c0-.1,0-.19,0-.29v0a58.49,58.49,0,0,1,.79-14,.36.36,0,0,1,0,.1c1.28-5.78,4-11.12,6.42-16.49,3.39-6.52,6.9-13.38,12.82-18-2.41-3.43-4.71-6.94-7-10.43l.06.08c-.15-.22-.88-1.26-1-1.47-8.18,1.37-16.54.13-24.67-1a49.13,49.13,0,0,1,2.44,13.41v-.05c2,17.89-13.06,32.23-28.62,38.09l.07,0a67.3,67.3,0,0,1-27,3.34q2.07,2.57,3.92,5.28a.41.41,0,0,0-.05-.09,47,47,0,0,1,3.8,6.6s0,0,0,0a170.14,170.14,0,0,1,7.94,18.35.93.93,0,0,0,0-.1c2.53,7.32,4.16,14.92,6.36,22.33.9,2.1-2.07,2.41-3.42,3l.09,0c-5.86,2.12-12.15,2.3-18.32,2.52h.11c-5.1.66-10.33-.16-15.27-1.37a2.67,2.67,0,0,1-.36-4.8c1.06-.78,2.42-.76,3.67-1a6.69,6.69,0,0,0,4.83-3.84l0,.09a24.59,24.59,0,0,0,1.71-5.65.43.43,0,0,1,0,.11c.19-.91.41-1.8.61-2.7a.36.36,0,0,0,0,.1,56.43,56.43,0,0,0,.84-5.62v.1c0-.35.06-.69.11-1l-.05,0c-10.32-6.81-21.13-13.09-29.55-22.34,0,.47-.06.93-.1,1.39v0c-.31,19.74-.82,39.56.38,59.3,0,0,0-.07,0-.11.31,3.76.78,7.49,1.31,11.22-2.08,1.68-4.63,2.71-7,4l.1,0a70.4,70.4,0,0,1-18.46,6.74l.1,0-.55.11.11,0a104,104,0,0,1-10.9,1.78h.07c-4.54.19-9.23,1.14-13.6-.59-1.52-.55-3.65-1.32-3.63-3.24a3.54,3.54,0,0,1,1.52-2.83c1.89-1.65,4-3.09,5.84-4.75l-.07.06c4-3.55,7.52-7.59,11.2-11.42l0,0c2.08-2.48,4.16-5,6.19-7.48.23-.39.91-.72.78-1.21a144.53,144.53,0,0,0-6.27-20.82c-4.06-11.39-7.24-23.07-10.9-34.59v0c-.11-.28-.21-.58-.31-.87l0,.1a58.7,58.7,0,0,1-2.74-9.18c1.4-.21,2.85-.26,4.26-.41-1.47-4.09-2.54-8.3-3.75-12.47a8,8,0,0,1-6.07-3l.07.08a8.28,8.28,0,0,1-2-3.6c-2.92,3.86-8.69,2.1-10.87-1.63l0,.07a16.21,16.21,0,0,1-2.71-7.31c-5.85,5.3-12.1-2.33-11.23-8.49v.1c0-.28,0-.5,0-.77a.41.41,0,0,1,0,.11c0-.37.07-.74.11-1.1-2.64,1.21-5.36,3.09-8.4,2.33l.11,0a16.72,16.72,0,0,1-2.4-.66l.06,0c-5.65-1.95-5.12-11.63-2.84-16-8.5,1.13-13.47-3.88-8-11.59-5.53-.69-10.76-2.78-15.91-4.81h0l-.61-.21a44.88,44.88,0,0,1-6.81-3.17c-.94-.61-2.45-1.11-2.4-2.48a202.15,202.15,0,0,1,4.32-26.54c1-4,2.94-7.56,4.37-11.35,1.73-3.8,3.09-7.76,5.16-11.39,2.16-4.35,4.81-8.44,6.82-12.86,1.64-4.35,3-8.81,4.37-13.24,2-4.79,3-16.62,7.8-18.76,4.7-1.58,7.5,3.76,9.11,7.3.87-.36,1.76-.65,2.65-1l-.06,0c6.17-2,11.37-2.34,14.63,4.19.95-2.91,1.79-5.86,2.84-8.74.69-1.65,1.35-3.66,3.09-4.45,4.51-1,4.74,5.06,4.59,8.12,6.1-7.05,16.26-8.18,15.83,3.65,5.62-3.11,11,.2,10.82,6.61,5.62-3.86,12-1.78,11.87,5.6v-.1c-.22.84.2,2.61-.95,2.77a.72.72,0,0,1-.71-.81,8.83,8.83,0,0,0-.32-5s0,.06,0,.08a4.09,4.09,0,0,0-4.62-2.95h.09a10,10,0,0,0-1.22.17l.09,0a8.34,8.34,0,0,0-4.58,2.51.71.71,0,0,1-1.12-.75,5.63,5.63,0,0,0,0-1.64v.09c.11-3.11-1.78-6.62-5.3-6.27h.1a6.94,6.94,0,0,0-4.34,1.64c-.39,1.36-2.19.53-1.3-.64a19.87,19.87,0,0,0-.24-4.81s0,.06,0,.09c-.06-.3-.14-.6-.23-.9l0,.09a6.29,6.29,0,0,0-.69-1.43l0,.05a4.6,4.6,0,0,0-2.24-1.77l0,0a5.52,5.52,0,0,0-3.69.22l.09,0a14.7,14.7,0,0,0-1.73.73l.08,0a20.4,20.4,0,0,0-5.86,4.86c0,4.93-1.12,10.75-5.13,14-6.1,1.28-12.46.49-18.67.44,0,.14-.11.28-.16.42l0-.08a17.36,17.36,0,0,0-.58,2.74c.84-.17,1.47.81.7,1.36a7.74,7.74,0,0,0-3.17.63l.09,0a12.45,12.45,0,0,0-1.45.63l.06,0c-2.7,1.06-4.7,4.59-2.92,7.2,1.46,1.83,3.94,2.63,6.13,3.18.47,1.18-1.06,1-1.74,1.37l.08,0c-11,3.28-12.75,17.41,1.56,14l-.06,0c1.26-.47,2.65-.54,3.82-1.27a7.8,7.8,0,0,0,.34,3.33v0c.18.44.37.88.57,1.3l0-.08a4.62,4.62,0,0,0,4.53,2.53c2.58-.41,4.25-2.94,5.56-5,.65-1.53,1.4-3,1.91-4.6a.79.79,0,0,1,1-.67c.48,4.33,3.87,7.55,7.31,3.32,2.11-2.29,2.66-5.42,3.57-8.26,1.81-1.59,2,3.6,3,4.48a5.72,5.72,0,0,0,9-.35,16.58,16.58,0,0,0,2.18-5.93.78.78,0,0,1,1.21-.4c.62.64.68,1.66,1,2.47,0,0,0,0,0-.08.31,1.65,2,2,3.44,2.31a4.66,4.66,0,0,0,4.75-1.73l-.07.07c1.65-1.93,1.92-4.55,2.05-7v0c0-.2,0-.41,0-.62v.11c0-.54.14-1.21.8-1.21,1.43.12.52,2.75.6,3.74,1.94-1.87,3.92-4.68,6.92-4.53a14.21,14.21,0,0,1,1.89-1.83l-.07.06.89-.79-.08.07c4.09-3.75,10.6-6.47,16-4l-.09-.05c2.61,1.06,4.58,3,6.6,4.88a8.13,8.13,0,0,1,2.66-3,34.86,34.86,0,0,1,6-4.59l-.09.05c9.32-4.9,18.07-4.43,25.52,3.39l-.06-.07.33.38,0,0a40.21,40.21,0,0,1,2.41,3.36c1.77-.54,3.55-1.05,5.36-1.49l-.11,0c8.77-1.89,18.28-1.95,26.32,2.46,1.38-.5,1.94,2.78,2.34,3.71,3.14,9.19,3.78,18.94,4.33,28.56V504c.19,2,.36,4,.46,6a.45.45,0,0,0,0-.11l.12,1.59c3.21,4.15,5.82,8.69,8.9,12.93a.22.22,0,0,0,0-.08c1.75,2.45,3.56,4.87,5.34,7.28.15-4.13,1.1-7.62,5.29-9.22h0c.74-.3,1.63-.27,1.8.67a66.36,66.36,0,0,1,.17,9.77v-.1c0,.32,0,.6-.06.91,1.49-2.87,3.36-6.4,6.9-6.86.65-.07,1.47-.26,2,.32a5.17,5.17,0,0,1,.1,3.21c-.66,2.66-1.35,5.32-2.1,8,1.55-1.71,3.29-3.54,5.64-4,1.41-.44,2.66-.08,2.82,1.56.06,1.37-.8,2.49-1.33,3.7-1,1.85-1.79,3.77-2.68,5.66,1.79-1.75,3.85-3.63,6.53-3.5.83,0,2.15-.25,2.26.91,0,2.81-2.59,4.94-4.11,7.13-1.4,1.71-2.62,3.68-4.43,5h0l-.07,0,0,0a1.24,1.24,0,0,0-.33.21,25.93,25.93,0,0,1-2.55.57c1.79,2.39,3.33,5,5,7.4a.56.56,0,0,1-.05-.08c.86,1.28,1.77,2.5,2.63,3.78.92-.67,4.27-4.46,5.19-3.23.45.6-.14,1.16-.66,1.42l.05,0a67,67,0,0,0-6.42,5.6l.06-.07c-1.41,1.66-2.88,3.26-4.2,5a.67.67,0,0,1-.54.43c-7.5,12.11-14.51,25.72-13,40.39,0,0,0-.07,0-.11l0,.49v-.07c.45,7.68.87,15.38,3.43,22.71l0-.1a64.25,64.25,0,0,0,6.89,12.77l-.06-.08c1,1.39,1.87,2.83,2.81,4.24a.47.47,0,0,0-.06-.09q.64.93,1.26,1.86l0,0a48,48,0,0,0,9,9.19l-.08-.07.34.29-.08-.06a42.92,42.92,0,0,0,9.38,6.1l-.09,0c7.88,3.84,15.88,7.76,24.79,8.2h-.1c2.56.09,5.1.25,7.64.54h-.1c1.18,0,2.36,0,3.53,0h-.11c2-.24,4-.25,6.08-.32h-.08c1.08-.07,2.17-.2,3.25-.27h-.11a23.36,23.36,0,0,0,3.54-.48l-.1,0,.7-.15-.1,0c10.47-3.18,20.12-9.36,28.5-16.3a.27.27,0,0,1-.08.07l.27-.23,0,0a47.24,47.24,0,0,0,7.81-8.55c3.33-5.35,5-11.54,8.25-17,0,0,0,0,0,0,.11-.22.21-.43.33-.65a.73.73,0,0,0,0,.09,50.39,50.39,0,0,0,4.06-15.77v.11c.08-1.6.09-3.21.24-4.81v.11a59.92,59.92,0,0,0-1-13.3.52.52,0,0,0,0,.11c0-.26-.11-.51-.16-.77,0,0,0,.07,0,.11-.16-.81-.31-1.62-.47-2.42a.36.36,0,0,1,0,.1c-.5-2.26-1.15-4.5-1.77-6.73l0,.1c-.13-.36-.26-.71-.38-1.07l0,.1c-7.44-20.86-20.31-32.43-40.86-40l.1,0a34.36,34.36,0,0,0-4.51-1.36l.1,0-.5-.1.1,0a100.52,100.52,0,0,0-23.14-2l.21,0c-.68,0-1.36.23-2.05.27h.11c-3.06.29-6.1.74-9.12,1.32h0a42.38,42.38,0,0,0-11.07,3.83l0,0a38.09,38.09,0,0,0-3.9,2.18l.08,0c-1.19.6-2.15,1.68-3.35,2.18a.7.7,0,0,1-.47-1.2c.7-.53,1.38-1.1,2.08-1.61l-.07,0c.31-.21.64-.4,1-.61l0,0a14.15,14.15,0,0,1,2.73-1.73c-.6-.78-1.08-1.65-1.65-2.44l.05.08c-9.77-13.25-20-26.24-28.85-40.16l.06.09c-.75-1.1-1.52-2.18-2.26-3.27l.06.08c-.82-1.2-1.66-2.38-2.48-3.59l.06.08c-.35-.51-.7-1-1-1.54v0c-.48-.73-1-1.46-1.49-2.19l.06.08c-.85-1.25-1.67-2.53-2.5-3.79l.06.09-.59-.86.06.08c-1.23-1.7-2.36-3.47-3.51-5.23v0c-.81-1.16-1.61-2.32-2.39-3.5l.06.08-.18-.26-.26-.39.06.09c-3.06-4.3-6.18-8.55-9-13l.06.09c-1.5-2.16-3.06-4.26-4.52-6.44l.06.08L775,469l.06.08c-1.89-2.9-3.62-5.9-5.54-8.79l.06.09-.53-.76c.17-.68.33-1.34.47-2,1.16,1.59,2.2,3.27,3.29,4.91a.41.41,0,0,1-.05-.09c1.25,1.89,2.31,3.89,3.6,5.76l-.06-.09C776.47,468.35,776.61,468.56,776.76,468.79ZM699.25,608.93a77.14,77.14,0,0,0-8.29-1h.1a317,317,0,0,0-32.48.11h.1l-.46,0h.1l-.46,0h0l-1.64.11h.1c-.27,0-.55,0-.82.06h0l-.42,0h.1l-.19,0c.4,1.29.9,2.55,1.35,3.82v0c.32.9.62,1.8.93,2.7l0-.1.33,1,0-.1c3.65,11.32,6.71,22.83,10.65,34.06h0c.07.21.15.41.22.62,0,0,0,0,0,0h0c2.64,7.47,5.62,15,6.47,22.87h0c-2.32,2.86-4.47,5.86-6.89,8.63h0l-.3.33.07-.07c-3.32,3.45-6.45,7.08-10,10.33-2.36,2.4-5.3,4.14-7.66,6.52l.06-.08a1.18,1.18,0,0,0-.23,1.62l-.07-.08a4.41,4.41,0,0,0,1.26.82l-.09,0a17.61,17.61,0,0,0,3.69,1.17l-.11,0a19.31,19.31,0,0,0,5,.24h-.08c1.79-.17,3.57-.3,5.36-.37h0a99.83,99.83,0,0,0,11-1.78l-.1,0,.59-.13-.1,0a82.08,82.08,0,0,0,8.58-2.41h0a75.86,75.86,0,0,0,9.45-4.19l-.09,0,.45-.22h0c1.89-.94,3.73-2,5.59-3-3.1-22.6-1.47-45.49-1.68-68.22h0c0-.51.07-1,.1-1.53h0s0,0,0,0h0v0c0-.06,0-.12,0-.19v0c.26-3.39.22-6.8.51-10.18v.1l.06-.87v.11C699.24,609.46,699.24,609.19,699.25,608.93Zm-9.83,76.72a.68.68,0,0,1,.32-1c3.47-1.27,4.91-4.95,4.91-8.42v.1a5.55,5.55,0,0,0,0-1.35.7.7,0,0,1,1.38-.19,14.26,14.26,0,0,1-.21,4.12,8.71,8.71,0,0,1-5.69,7,.71.71,0,0,1-.68-.33Zm6.33-87.47a21.08,21.08,0,0,1,1.38,8.77c.9.16,1.82.29,2.72.46a.76.76,0,0,1,.48.66c.8.88.25,2.46.31,3.57v.06c-.1,1.95-.11,3.89-.19,5.84,2.35,2.18,4.58,4.47,7,6.6l0,0C714,630,721.55,634.6,729,639.24h0c2.15,1.64,4.69,2.93,6.4,5,.13,1.3-.93,2.49-1.24,3.75h0a.19.19,0,0,0,0,.07h0c-.67,2-1.23,5,1.14,6l-.06,0a5,5,0,0,0,.93.37.75.75,0,0,1-.21,1.46c-5.6-1-4-7.42-2-11-.83-.66-1.64-1.35-2.52-2h0l-.07,0a50.85,50.85,0,0,1-1.4,8.39.36.36,0,0,0,0-.1c0,.08,0,.17,0,.26a.43.43,0,0,0,0-.11l-.12.63a.43.43,0,0,1,0-.11l0,.13h0c-.82,4.68-3.28,9.76-8.64,10-1,.13-2.41.3-2.72,1.44v0c.42,2,3.25,1.34,4.74,1.93l-.1,0a31.92,31.92,0,0,0,9.89.54h0c6.27-.3,12.7-.33,18.67-2.5l-.1,0a23.39,23.39,0,0,0,2.4-.94c-2.13-7.22-3.72-14.63-6.15-21.76a.69.69,0,0,0,0,.1.78.78,0,0,1-.05-.14h0a180.89,180.89,0,0,0-7.73-18.06l.05.09c-2.15-4.86-5.37-9.08-8.48-13.31-11.41-1.26-22.3-5.31-32.84-9.67h0l-.76-.39.09.05c-.8-.36-1.59-.74-2.36-1.17Zm58.19,64.25,0-.08s0,0,0,.08Zm-4.63-22.25,0,0,0,0s0,0,0,.05h0Zm11.28-84.47c.92,1.06,5.86,4.5,4.53,5.8a.72.72,0,0,1-.88,0,61,61,0,0,0-4.6-4.49c-5-4-11.43-5.55-17.46-7.3h0c-.38-.07-.77-.15-1.15-.24l.1,0-.15,0,.11,0a42,42,0,0,0-14.91.68l.1,0-.22.05.1,0c-.34.08-.67.15-1,.21l.1,0c-2.6.47-5.14,1.21-7.72,1.8l.1,0a7.14,7.14,0,0,1-1.22.15c-.36,1.27-.74,2.52-1.2,3.76,0,0,0,0,0,0a19.07,19.07,0,0,1-6.47,9.24l.08-.07c-5.25,5.57-11.07,3.85-16.83.17h0c-2.22-1.64-4.6-3.14-6.4-5.25a3.45,3.45,0,0,0-.42.14h0c-.66.22-1.31.48-2,.7l.06,0c-3,1-6,2.11-9,3l.1,0a3.67,3.67,0,0,0-.73.32c-1,.37-3.63,1.41-4.6,1.72h0c-1.12.38-2.2.86-3.31,1.26a23.4,23.4,0,0,0-3.84,2h-.06a.87.87,0,0,1-.34.29h0c-.43.29-.82.64-1.26.92h0a12.72,12.72,0,0,0-3.32,3.18h0l0,.08v0a30.51,30.51,0,0,0-4.12,10.61v0h0c.62,1.61.85,3.35,1.44,5l0,0a20.82,20.82,0,0,1,.83,3.31h0a9.84,9.84,0,0,0,.36,1h0c1.4,4.26,2.39,8.66,3.82,12.92,12.11-.54,24.26-.8,36.35.26,0-1,0-2.06-.07-3.09h0c-.07-.66-.18-1.32-.31-2,0,0,0,.06,0,.1a16.51,16.51,0,0,0-.59-2.3l0,.1a15.13,15.13,0,0,0-1.34-2.59h0l-.31-.47v0c-3.48-5-8-10-14.28-11.09l.07,0-.34-.07h0l-.69-.15h0l-.11,0h0c-.85-.29-2.52-.15-2.59-1.33.9-.05,1.81-.06,2.71,0h-.16a17.26,17.26,0,0,1,10,4.09c1.45,1.45,2.83,3,4.27,4.42,1,1.05,1.56,2.48,2.88,3.19l-.07-.05c1.53.88,3,1.82,4.61,2.6h0l.26.13-.09,0c4.24,1.65,8.47,3.44,12.75,5,4.52,1.42,9.18,2.46,13.73,3.7,12.35,2.29,25.79,1.42,37.67-3.67,8.17-4.23,16.48-10.38,20.67-18.47a27.11,27.11,0,0,0,2.8-7.86h0a.87.87,0,0,0,0-.1v0a33.26,33.26,0,0,0,.4-9.39,42,42,0,0,0-.64-5.51c-.69-2.59-.65-5-1.91-7.19a.93.93,0,0,0-.63-.44,0,0,0,0,1,0,0c-2-.17-3.08-2.13-4.68-3.07h0a21.38,21.38,0,0,1-1.83-1.28,22.3,22.3,0,0,0-3.14.5h0a74.07,74.07,0,0,0-14.1,5.26ZM653.5,592.47Zm-51.7-49.56a.63.63,0,0,1-.27,0,7,7,0,0,0-1.36,1.92.56.56,0,0,1,.05-.08,13,13,0,0,0-.53,1.21l0-.09a18.09,18.09,0,0,0-.68,2.28v0c-.7,3.43,3.63,4.8,6.34,4.78h-.1a9.51,9.51,0,0,0,3.7-.54h0a.85.85,0,0,1,.94,1.24,18.93,18.93,0,0,0-1.77,4.41h0a17.53,17.53,0,0,0-.37,2.7.17.17,0,0,0,0-.07,14.53,14.53,0,0,0,.37,4h0l0,.14h0a.36.36,0,0,0,0,.1h0a5.05,5.05,0,0,0,1.93,3.42l-.08,0a9.35,9.35,0,0,0,2.86,1l-.1,0a6.27,6.27,0,0,0,2.69.11c2.22-.52,4.12-1.91,6.26-2.67l0,0c.89-.45,1.44.62,1.23,1.39a23.68,23.68,0,0,0-.23,3.66.34.34,0,0,1,0-.1,7.73,7.73,0,0,0,1.44,4.54h0a5.26,5.26,0,0,0,1.71,1.77h0a3.74,3.74,0,0,0,4.77.06h0a12.14,12.14,0,0,0,1.87-1.64c1.48-1,1.55,1,1.51,2a.45.45,0,0,1,0-.11c0,.1,0,.2,0,.3v0a14.75,14.75,0,0,0,2.31,6.42h0a8.18,8.18,0,0,0,1.17,1.44h0a7.56,7.56,0,0,0,2.85,1.67l-.1,0,.21,0-.11,0c2.61.76,4.55-1.29,5.74-3.33,1.7-.84,1.34,1.62,1.49,2.58a7.2,7.2,0,0,0,5.94,5.19c-.18-.74-.37-1.48-.62-2.2h0a.64.64,0,0,1,0-.07v0a27.12,27.12,0,0,1-1.43-5.88h0c.13-4,1.93-8,4-11.39h0a11.82,11.82,0,0,1,.91-1.2h0l.3-.34-.07.07a18.32,18.32,0,0,1,3.35-2.79c-4-2.54-6.54-7-8.24-11.35v0l0-.1s0,.05,0,.07c-.12-.35-.24-.71-.37-1.05a.36.36,0,0,0,0,.09c-1.46-4.31-1.91-8.86-2.75-13.32a85.83,85.83,0,0,1-14.8,2h-.06l-.91.06h.11a124,124,0,0,1-29.67-2l.11,0c-.52-.1-1-.19-1.56-.26Zm156.64,40.43.07,0-.06,0c2-1.3,3.31-3.37,4.64-5.31a.73.73,0,1,1,1.26.74c-3.78,7.91-14.27,11.18-22.1,7.58h0l-.5-.2.11.05-.47-.19h0l-.55-.24c.28-.8,1.28-.39,1.88-.29h0l1.48.31h0a29.31,29.31,0,0,0,6.13.41h-.1a15.78,15.78,0,0,0,4.29-.9h0a20.63,20.63,0,0,0,2.47-1.06l-.09,0a16.91,16.91,0,0,0,1.59-.93Zm-16.2,3h0Zm12.25-1.07Zm0,0h0Zm0,0Zm3.94-1.92h0ZM610.61,570.24h0Zm0,0h0Zm4.9-.85h0Zm0,0Zm0,0Zm0,0Zm0,0Zm62-77.89-.55.43c-.17,5.47-.32,11.08-2.45,16.2-1.85,5.21-4.17,10.79-9.21,13.65a14.41,14.41,0,0,1-16.76-1c-3.18-2.31-5.13-5.69-7.23-8.92-.58,3.65-1.22,7.29-1.55,11v-.09c-.06.63,0,1.28-.06,1.9,2.49,3.53,4.82,7.15,8.54,9.48l-.07-.06.15.12c.1.39.22.77.33,1.16h0c1.78,6.73,2.09,13.79,4.19,20.44h0l.38,1.08a1,1,0,0,1,0-.1,24.37,24.37,0,0,0,1.1,2.58l0-.09a21.91,21.91,0,0,0,6,7.76l-.09-.06a3.78,3.78,0,0,0,1.65.63c2.26-1.7,5.75-1.6,7.13-4.27l0,0a28.68,28.68,0,0,0,4.63-13.67c.08-.66.12-1.75,1-1.64,1.28.34.38,2,.44,2.89a29.58,29.58,0,0,1-4.5,12.91,71,71,0,0,1,7.74-2.85h0c2.06-.8,4.16-1.46,6.23-2.22a65.32,65.32,0,0,1-4-6.78h0a22.79,22.79,0,0,0-2.59-4.36.67.67,0,0,1,1-.95h0a20.49,20.49,0,0,1,3,4.77l0-.09c0,.1.09.2.14.29h0c.92,1.84,2.12,3.53,3.18,5.29v0l.26.39a.22.22,0,0,1,0-.08,2.14,2.14,0,0,0,.13.19h0l0,.06h0c1.91,2.73,4.75,4.6,7.42,6.54l-.09-.06a25.41,25.41,0,0,0,7.32,3.19l-.11,0a7.77,7.77,0,0,0,4.65-.84h0a20.64,20.64,0,0,0,9-10.9h0a53.28,53.28,0,0,0,2.11-7.56.36.36,0,0,1,0,.11,107.37,107.37,0,0,0,1.81-13.37c.08-1.29,2-1.23,1.6.13v0h0a100.25,100.25,0,0,1-2.38,16c2.65-.55,5.24-1.43,7.92-1.89l-.1,0c5.48-1.19,11.2-1.87,16.77-.94l-.11,0,1.26.25-.11,0,.15,0-.1,0c5.77,1.61,11.77,3.18,16.78,6.59A61.27,61.27,0,0,1,776,548.57c-4.74-4-7.8-9.64-10.6-15.11l-.39-.16.09.05a42.94,42.94,0,0,0-4.9-2.05h0l-.63-.21h0l-.58-.2h0l-.35-.12h0c-4-1.19-8-2.53-12.26-2.36A26.87,26.87,0,0,1,742.1,535l.07-.08c-.54.62-1.08,1.25-1.62,1.86l.07-.08c-.7.79-1.43,1.65-2.18,2.38-.62.51-1.22,1.47-2.11,1.32a.79.79,0,0,1-.35-1.31,40.46,40.46,0,0,0,5-5.23l-.07.07c6.12-6.79,6.24-13.23,5.81-21.86-5.23.9-10.37-1.19-15-3.45a38.53,38.53,0,0,1-3.45-2.18h0l-.06-.05h0l-.51-.34c-1.33,7-5.5,14.41-12.79,16.31a24.31,24.31,0,0,1-24.34-7.55l.07.08c-.34-.38-.67-.76-1-1.15l.06.08c-1.5-1.76-3-3.55-4.36-5.4v0L685,508h0c-.13-.19-.26-.37-.38-.56h0l-.21-.31h0l0-.05h0C681.26,502.3,680,496.61,677.51,491.48Zm55.27-28.34c-4.79-2-10.48-.64-15,1.42h0l-.29.15h-.06l-.59.3h0a35.2,35.2,0,0,0-8.49,7h0c-.06.08-.16.15-.14.27h0c.63.63,1.43,1.26,2.07,1.95a.81.81,0,0,1-.57,1.37c-1.16-.38-1.89-1.72-2.91-2.41l.08.06c-2.19-1.81-4-4.07-6.75-5.15l.09,0L700,468h0a7.47,7.47,0,0,0-4.31-.77h.11c-.78.06-1.55.18-2.32.31l.1,0a14.53,14.53,0,0,0-3.21,1.05h0l-.09,0a19,19,0,0,0-4.51,3.08l0,0-.07.06h0l-.12.11a.27.27,0,0,1,.08-.07l-.34.3s0,0,0,0l-.43.38h0c-.41.37-.83.71-1.23,1.08,4,2.18,2.56,7.67.53,10.77v0a.56.56,0,0,1-.05.08v0a31.92,31.92,0,0,1-5.56,6.22c2.86,5.56,4.2,11.89,8,17h0a.16.16,0,0,0,0,.07l0,0c1.35,1.79,2.78,3.51,4.23,5.21l-.06-.07,1,1.09,0,0c2.21,2.53,5.13,4.28,8,6h0l.09,0h0c7.34,3,17.73,2.7,22.42-4.59l-.06.08c3.85-5.45,4.57-12.27,5.76-18.67a.81.81,0,0,1,.91-.68c1.43.22.12,3.36.11,4.4a.43.43,0,0,1,0-.11c-.07.32-.13.63-.19.95a.43.43,0,0,1,0-.11c-.23,1.16-.51,2.31-.76,3.47a36.94,36.94,0,0,0,12.62,5.82l-.1,0a19.12,19.12,0,0,0,2.6.36H743a17,17,0,0,0,2,0H745a14.54,14.54,0,0,0,1.86-.23h0a10.73,10.73,0,0,0,2.58-.92l-.06,0c7.16-3.92,10.54-11.95,13.56-19.12a.8.8,0,0,1,1.48.62c-2.4,5.87-5.07,11.87-9.6,16.42A127.91,127.91,0,0,0,760,519.67a.36.36,0,0,0,0-.09s.2.39.21.43h0l.1.2a.36.36,0,0,1,0-.09l.1.2,0,0c1.19,2.3,2.53,4.53,3.66,6.86,0,0,0,0,0,0,1,1.85,1.83,3.77,2.74,5.66a.2.2,0,0,0,0-.08,85,85,0,0,0,4.56,8l0,0c1.1,1.5,2.18,3,3.41,4.42l0,0a28.83,28.83,0,0,0,6.08,4.92l-.08-.06c1.24.86,2.28,2,3.56,2.78,4.16.8,8.37,1.25,12.58,1.72h0a100.54,100.54,0,0,0,10.84.17h-.11a39.67,39.67,0,0,0,3.94-.52h0c.25,0,.6,0,.8,0h0a6.82,6.82,0,0,0,1,0h0a4.55,4.55,0,0,0,1.37-.21h0l.3-.13h0a75.21,75.21,0,0,0,6.9-8.49l0,.07a7.33,7.33,0,0,0,1.13-2.23c-.5,0-1,0-1.5,0h-.07a11.4,11.4,0,0,0-4.7,2.29,27.14,27.14,0,0,0-2.78,2.23c-.17-.15-.34-.3-.5-.47h0v0c.16-.46.43-1.1.64-1.54h0l.06-.14v0c.91-2.09,1.6-4.27,2.7-6.28.4-1.18,1.68-2.42,1.2-3.7h-.15a2.6,2.6,0,0,0-.56.07h0a5.58,5.58,0,0,0-1.56.5l.09,0c-2.4,1.24-4.12,3.51-5.65,5.66h0a13.72,13.72,0,0,0-1.29,2l-.56-.44c1.15-4.59,2.54-9.11,3.59-13.72a.29.29,0,0,0,0,.09,6.6,6.6,0,0,0,0-1.54h-.16a5.41,5.41,0,0,0-3.47,1.69h0l-.07.06h0a14.13,14.13,0,0,0-1,1.34l0-.07a25.56,25.56,0,0,0-1.78,3c-.7,1.66-1.53,3.26-2.19,5a1.78,1.78,0,0,0-.52-.29s0-.09,0-.13h0c0-1.89,0-3.79.08-5.68v.1a77.41,77.41,0,0,0-.06-9.39,13.41,13.41,0,0,0-1.57.88h0c-2.22,1.3-2.51,4.09-2.76,6.42v-.1s0,.07,0,.1v0c0,.61-.1,1.2-.14,1.8h0l0,.35v0a.28.28,0,0,1,0,.09h0a8.85,8.85,0,0,0-.05,1.26l0,0c-.06,1.1,0,2.2,0,3.3h0V538a.71.71,0,0,1-.45.18c-1.07-.41-2.14-.82-3.24-1.15h0a11,11,0,0,0-6.46.15h0l-.26.06h0l-.08,0h0c-.74.21-1.46.47-2.17.75l.08,0-.36.14c-.07-.19-.13-.38-.19-.57h0c-2.64-7-3-14.64-3.53-22.08v0l-.06-.91v.11c-.06-.84-.11-1.69-.16-2.54v.11a3.68,3.68,0,0,1,0-.47h0c0-.29,0-.57-.05-.85h0c-.09-1.08-.2-2.15-.25-3.24v.08c-.18-2-.37-3.95-.45-5.93V502c-.15-2-.3-3.95-.4-5.92a.07.07,0,0,1,0,.05,85.49,85.49,0,0,0-4.5-22.45,34.44,34.44,0,0,0-12.19-3.87h0a59.81,59.81,0,0,0-6,.1h0a54,54,0,0,0-6.47.71h0l-1.33.27h0c-1.64.37-3.25.85-4.88,1.25a.79.79,0,0,1-1.51.45h0a22.68,22.68,0,0,0-10.47-9.44Zm-114.33-3.53a10.87,10.87,0,0,1-1.87-.46c-.85-.63,0-1.62.89-1.31,5.6.74,11.31.47,16.95.52h0c1.18-.11,2.32-.41,3.51-.46a1.21,1.21,0,0,0,.66-.48l0,.05c3.22-3.79,3.93-9,3.76-13.78-.07-1.9.22-3.88-.55-5.67v0a2,2,0,0,0-.26-.58l.06.09a1.79,1.79,0,0,0-1.47-.88h.11a.85.85,0,0,0-.31.06l.06,0c-1.52.91-1.88,2.94-2.56,4.46-.9,3.14-2.24,6.2-2.81,9.42a14.23,14.23,0,0,1,.64,1.51.79.79,0,0,1-1.39.69c-1.8-3.79-4.12-9.14-9.23-8.14h.11c-.83.06-1.65.14-2.46.27l.1,0-1,.21.11,0c-1.47.36-2.89.88-4.32,1.35l.1,0-.47.17a.73.73,0,0,1-.68.53.87.87,0,0,1-1.15-.75c-.25-.62-.54-1.21-.84-1.81l.05.1a25,25,0,0,0-2.36-3.82,7.31,7.31,0,0,0-.64-.6l.08.07a3.47,3.47,0,0,0-4.19-.63l0,0c-2.58,2.82-3.22,6.94-4.29,10.5-1.84,6.92-4,13.77-6.46,20.5-3.33,7-7.8,13.51-10.5,20.84-2.52,6.05-5.53,12-6.69,18.46a.36.36,0,0,1,0-.1c-1.44,6.89-2.11,13.92-3.42,20.83-.07.43-.29,1.2-.09,1.59s1.11.65,1.53.87a75,75,0,0,0,7.34,3.23,81.75,81.75,0,0,0,13.27,4.36l-.1,0c2.22.47,4.52.53,6.73,1.06l-.1,0c4.23.71,8.49,1.35,12.77,1.72h-.11a168.3,168.3,0,0,0,19.58-.11h-.11a91.72,91.72,0,0,0,11.9-1.85c-.32-2-1.08-5.9-1.08-5.9s-.57-.38-1.16-.87c-3.9-2.88-5.85-6.84-8.6-10.4a.21.21,0,0,0,0,.06c-2.41-3.48-4.51-7.15-7-10.59a.72.72,0,0,1,1.07-.94c2.52,3.14,4.49,6.68,6.78,10,.24-2.36.47-4.73.93-7.06l0,.09c.24-1.78.51-3.55.84-5.31v0l.06-.27a.06.06,0,0,0,0,0c0-.14.05-.28.08-.41a67.64,67.64,0,0,1-4.21-9.26c-.58,0-1.15,0-1.73,0h.1a18.91,18.91,0,0,0-4.19,1,.69.69,0,0,1-.65-.41c-.58-1.5,4.86-2.15,5.91-2.08-.61-1.68-1.27-3.33-1.82-5-2.73,4.28-7.79,6.11-11.28,1.57A26,26,0,0,0,620,500.9a.19.19,0,0,0,0-.07,20.69,20.69,0,0,0-1.11,4.38v.09c1,1.14,7,5.57,5.49,6.86a.82.82,0,0,1-1.12-.14c-2.75-3.5-6.08-6.83-10.49-8l.09,0a8.12,8.12,0,0,0-2.07-.43h.05c-7.46-.8-11.13,3-14,9.42a.68.68,0,0,1-1.3-.35A19.22,19.22,0,0,1,602,503.8c2.33-1.74,5.33-1.75,8.12-1.76a6.3,6.3,0,0,0,.18-.75.36.36,0,0,1,0,.1c.52-2.86.79-5.76,1.25-8.63-9.22-3-3.25-14.38,3.47-16.57a1.12,1.12,0,0,1,0-.13c-8-3.12-4.47-11.79,2.72-13A24.66,24.66,0,0,1,618.45,459.61Zm169.2,77.66h0Zm4.73-9.31-.3.29h0l-.08.07c-.17.16-.33.33-.5.47a3.19,3.19,0,0,1-.55.35,6,6,0,0,1-.82.36,3.89,3.89,0,0,1-.49.12l-.27,0a4.85,4.85,0,0,1-.76.14h-.1l.08.18c.12.28.23.55.33.83a10.24,10.24,0,0,1,.4,1.44c.06.29.09.6.13.89l.06.57h0c0,.47.05.93.06,1.39,0,.18,0,.35,0,.53l.64-.05a9.37,9.37,0,0,1,1.06,0c.36,0,.71,0,1.07.05s.89.07,1.32.14c.25,0,.49.1.73.15l.74.15H795a11.17,11.17,0,0,1,1.41.35l.47.16c0-.56,0-1.12,0-1.67v-.51l0,0c0-.05-.08-.1-.11-.16l-.16-.2c-.1-.13-.18-.26-.27-.4l-.68-1c-.15-.23-.29-.46-.43-.7s-.34-.47-.52-.7l-1.27-1.68c-.37-.5-.72-1-1.06-1.53Zm-9.46-13.83,0,.46a.37.37,0,0,0,0-.11l.06.91v0c.06.86.1,1.73.15,2.58v-.07c.05.86.13,1.72.2,2.58s.12,1.55.2,2.33c.16,1.64.39,3.29.6,4.93.09.75.2,1.49.32,2.22s.28,1.43.41,2.14c.27,1.36.51,2.73.78,4.08h0v0h0l.05.24.26-.1a6.78,6.78,0,0,1,.91-.25,7,7,0,0,1,.91-.18l.28,0,.1,0v-.09h0c0-.67,0-1.35,0-2,0-.2,0-.4-.08-.6s-.06-.45-.1-.67a10.88,10.88,0,0,0-.39-1.3c-.13-.34-.27-.68-.43-1-.08-.15-.17-.3-.26-.45a.45.45,0,0,1-.11,0,.69.69,0,0,1-.39-.8.66.66,0,0,1,.3-.39.55.55,0,0,1,.26-.19.72.72,0,0,1,.67.06l.69,0h.17l.36-.06.39-.08.31,0,.17-.05c.18-.07.34-.15.51-.23h0c.13-.06.25-.13.37-.2l.08-.06h0c.15-.14.29-.29.45-.43l.39-.4-.06.07.12-.14c-.29-.38-.57-.77-.84-1.16h0l0,0,0-.06h0c-.21-.3-.4-.59-.6-.89l-.37-.55,0,.08c-.39-.58-.82-1.13-1.23-1.7s-.87-1.24-1.29-1.89l-1.23-2c-.42-.67-.85-1.33-1.27-2h0c-.54-.78-1.11-1.56-1.66-2.34l-.14-.18Zm15.3,18.6Zm0,0h0Zm0,0h0Zm-44.6-24.15c-.41.35-.84.69-1.28,1a15.23,15.23,0,0,1-2.8,1.67,10.21,10.21,0,0,1-1.15.46.64.64,0,0,1,.07.39.71.71,0,0,1-.14.33c0,.69.08,1.37.08,2.06s0,1.67,0,2.5,0,1.57,0,2.35a21.05,21.05,0,0,1-.1,2.38,19.41,19.41,0,0,1-.54,3.3,15.51,15.51,0,0,1-.66,1.88h.08a9,9,0,0,1,1.16,0c.4,0,.82,0,1.22.09s.88.1,1.32.16a20.3,20.3,0,0,1,2.3.45l2.29.62,2.06.53c.67.18,1.32.41,2,.64l.66.22-.1,0,.68.23,1.4.49a11.56,11.56,0,0,1,1.25.55l-.1-.05c.34.16.69.3,1,.44l-.74-1.58a.41.41,0,0,1-.05-.09h0l-.32-.63,0,0,0,0,0,0c-.21-.4-.41-.8-.61-1.2h0c-.09-.17-.17-.34-.26-.52l-.08-.15h0v0c-.62-1.2-1.25-2.4-1.91-3.58s-1.26-2.34-1.85-3.53l0,.09c-.35-.7-.68-1.41-1-2.12s-.68-1.55-1-2.32c-.64-1.45-1.3-2.89-1.91-4.36-.22-.52-.44-1.06-.64-1.59l-.32-.86c0-.1-.07-.2-.1-.29Zm-153.69,18.8a8.45,8.45,0,0,0,.82.49h0l.07,0h0a21.11,21.11,0,0,0,3,1.11.73.73,0,0,1,.5.88.71.71,0,0,1-.88.49c-2.57-.59-5.15-1.74-6.5-4.12h0l0-.07h0a9.15,9.15,0,0,0-.78-1.07.71.71,0,0,1,.88-1c1.19.87,1.68,2.51,3,3.28Zm0,0h0Zm163.71-.84h0Zm0,0ZM681,485.91a13.08,13.08,0,0,0,3.58-7.32h0c.27-2-1.19-4.36-3.43-3.88-2.8.93-4.34,3.88-6.59,5.54-1,3.35-4.25,6.38-7.91,5.41h0c-1.87-.32-4-1-4.54-3.05-.9,3.07-2.72,6.12-6,6.9-3.51.78-7.54-1.26-8.26-4.93-1.18,5.66-8,13.47-12,5.31-.36.87-.75,1.71-1.17,2.55.69,2.29,1.62,4.5,2.45,6.75,1.11.09,5.49.24,5.2,1.8a.76.76,0,0,1-.93.53,12.25,12.25,0,0,0-3.68-.8,60.91,60.91,0,0,0,3.55,7.7c3-2.5,6.8-3.55,10.33-5a27.19,27.19,0,0,1,8.45-2.07H660l.28,0h0l.27,0h-.1l.47,0h0c6.22-1.22,12.56,4.22,7.33,9.86-5.14,5.34-13,5.33-19.55,7.61a19.37,19.37,0,0,0,1.6,1.27l-.08-.06c3.57,2.45,8.64,3.37,12.59,1.3l-.09.05c.78-.39,1.55-.79,2.3-1.25l-.09.06a14.78,14.78,0,0,0,4.39-4.38l-.06.09a25.58,25.58,0,0,0,1.41-2.43s0,0,0,0a.36.36,0,0,1,0-.09l0,0a72.29,72.29,0,0,0,3-7.5s0,.05,0,.07l0-.1h0a34.33,34.33,0,0,0,1.52-8.41h0c.11-1.36.09-2.72.16-4.09h0c0-.82.21-1.64.28-2.46l.24-.15h0a7.7,7.7,0,0,0,.94-.63h0c.3-.26.63-.49.93-.76h0c1.14-1.17,2.36-2.29,3.43-3.53l-.07.07,0,0ZM645.39,507.6l-.54.27.09-.05a14.66,14.66,0,0,0-3,2,43.12,43.12,0,0,0,5.47,7.9,1,1,0,0,1,.31-.25h0a12.37,12.37,0,0,1,2.44-.92,63.83,63.83,0,0,1-4.79-8.93Zm6.53-2.64c-1.75.69-3.5,1.35-5.23,2.07.2.41.4.82.61,1.22l0-.08a52.11,52.11,0,0,0,3.08,5.82h0l.27.41-.05-.08a12.14,12.14,0,0,1,1.13,1.86l.8-.17-.11,0c1.31-.28,2.65-.43,3.94-.81-1.35-2.88-2.7-5.76-3.89-8.71l0,.08c-.18-.54-.39-1.08-.53-1.63Zm121.76,10.56a.75.75,0,0,1-.52-.91,16,16,0,0,0,1.16-7v.1a26.32,26.32,0,0,0-.45-3.44l0,.09a19.7,19.7,0,0,0-1.47-4.41.69.69,0,0,1,1.19-.68,19.2,19.2,0,0,1,.94,15.84A.76.76,0,0,1,773.68,515.52ZM659,503a23.79,23.79,0,0,0-5.61,1.41h0l-.13,0c0,.12.07.24.11.36l0-.05c1.25,3.33,2.84,6.54,4.34,9.76h0a1.41,1.41,0,0,0,.18.23,24.55,24.55,0,0,0,4.59-1.55,21.85,21.85,0,0,1-1.36-3.81l0,0c-.19-.53-.38-1.06-.56-1.59h0c-.09-.25-.18-.5-.26-.75l0,.09C659.82,505.82,659.37,504.43,659,503Zm6.44,10.37h0Zm3.07-5.83c.44-2.65-2.35-4.7-4.78-4.76h0a20.52,20.52,0,0,0-2.6.05h.11l-.81.05c.43,1.24.85,2.48,1.27,3.73h0l0,.1v0s.15.43.16.45h0a.14.14,0,0,0,0,.06l.08.25a.43.43,0,0,0,0-.05c.68,1.7,1.05,3.51,1.8,5.18.28-.16.57-.32.84-.5h0l.05,0h0l.08,0h0l.16-.11h0l.2-.13-.09.06.38-.25h0a11.45,11.45,0,0,0,1.92-1.69l-.05.06a7.09,7.09,0,0,0,.94-1.37,4.54,4.54,0,0,0,.38-1ZM621,491.88a16.07,16.07,0,0,1-2,.8,12.81,12.81,0,0,1-2.39.48,13.82,13.82,0,0,1-1.58.09l-.81,0c-.43,0-.86-.07-1.29-.14v0c0,.2,0,.39-.08.58-.06.45-.13.89-.19,1.33-.12.75-.23,1.51-.33,2.26s-.2,1.56-.31,2.33c-.06.38-.12.75-.19,1.12s-.08.49-.1.74a4.68,4.68,0,0,1-.1.54s0,0,0,.06h0v.05l.46.08a11.31,11.31,0,0,1,1.63.48l1.34.51c.53.2,1.06.4,1.57.63a7.52,7.52,0,0,1,.79.43c0-.28.11-.55.16-.82a21,21,0,0,1,.6-2.2,32.66,32.66,0,0,1,1.88-4.68c.19-.38.4-.75.61-1.12.09-.16.19-.32.29-.48a2.27,2.27,0,0,1,.37-.44h0a1.7,1.7,0,0,0,.19-.19l-.06.07,0,0,.07-.07a7.11,7.11,0,0,1-.37-1.13,5.53,5.53,0,0,1-.16-1.07.43.43,0,0,0,0-.11s0-.08,0-.11Zm28.73,7.43c-1.63-.56.51-2.58,1-3.36a13.22,13.22,0,0,1,11.6-5.11.73.73,0,0,1,0,1.46,13,13,0,0,0-11.64,6.21h0l0,.08h0c-.21.36-.45.82-.94.74Zm106.88-17.1a18.26,18.26,0,0,0-5.57-3.52h0a.71.71,0,0,1-.51-.57c.19-2.78,7.43,2.91,8.16,3.92a.77.77,0,0,1-.55,1.31c-.65-.08-1.05-.78-1.56-1.15ZM675,480h0Zm-73.44-8.28a.8.8,0,0,1-.33-1.3c1-2.49,2-5,2.85-7.55l0,.09c.52-1.51,1-3,1.4-4.59a.66.66,0,0,1,1.26.36h0a82.62,82.62,0,0,1-3.63,10.95c-.37.63-.51,2.27-1.53,2.05Zm131.21-8.63h0Zm44,5.65h0Zm0,0Zm0,0h0Z"/></g></g></svg>