<svg fill="none" height="36" viewBox="0 0 36 36" width="36" xmlns="http://www.w3.org/2000/svg"><path d="m18 36c9.9411 0 18-8.0589 18-18 0-9.94112-8.0589-18-18-18-9.94112 0-18 8.05888-18 18 0 9.9411 8.05888 18 18 18z" fill="#29abe0"/><path d="m26.3867 9.72974c3.4284 0 6.2076 2.77926 6.2076 6.20766v.3648c0 3.4284-2.7792 6.2077-6.2076 6.2077h-1.7775v1.8683c0 1.5823-1.2827 2.865-2.865 2.865h-13.52807c-1.58233 0-2.86506-1.2827-2.86506-2.865v-13.2159c0-.7912.64137-1.43256 1.43253-1.43256zm-1.7775 3.31336v6.1534h1.6204c1.6993 0 3.0767-1.3775 3.0767-3.0767s-1.3774-3.0767-3.0767-3.0767z" fill="#fff"/><path d="m14.5947 15.5641c.4426-1.295 1.4914-1.9425 3.1466-1.9425 2.4827 0 3.4031 3.0888 2.1018 5.1081-.8676 1.3462-2.6171 3.0489-5.2484 5.1081-2.6314-2.0592-4.3808-3.7619-5.24841-5.1081-1.30139-2.0193-.38097-5.1081 2.10181-5.1081 1.6551 0 2.704.6475 3.1466 1.9425z" fill="#ff5e5b"/></svg>